<svg xmlns="http://www.w3.org/2000/svg" pointer-events="none" class="leaflet-zoom-animated" width="1140" height="642" viewBox="-95 -53 1140 642" style="transform: translate3d(-95px, -53px, 0px);"><g><path class="leaflet-interactive" stroke="black" stroke-opacity="1" stroke-width="2" stroke-linecap="round" stroke-linejoin="round" fill="#fff" fill-opacity="0.2" fill-rule="evenodd" d="M577 443L578 448L580 449L581 462L584 465L580 470L580 477L591 482L594 482L594 480L600 478L604 481L605 480L606 482L603 485L604 491L601 492L604 504L601 506L601 511L606 513L610 511L608 509L609 507L612 506L607 499L608 497L611 497L613 495L617 499L616 500L619 501L618 507L620 507L618 515L614 517L618 527L622 521L626 526L632 524L633 527L640 530L642 524L646 527L648 526L647 519L650 518L653 511L653 503L654 504L657 498L664 495L664 491L669 486L667 482L663 484L661 482L658 485L656 483L658 480L664 477L662 475L667 470L661 466L661 455L663 452L663 448L669 438L667 435L661 434L661 430L656 425L653 425L649 420L652 415L651 413L649 413L650 405L647 402L643 402L643 405L640 405L637 409L632 409L634 400L627 394L629 391L629 385L632 383L630 382L630 380L627 380L629 378L625 374L624 375L624 373L623 376L620 377L619 375L621 375L621 373L618 370L617 371L620 375L617 375L613 372L613 370L611 371L610 359L608 354L603 352L596 363L598 364L596 367L594 367L594 369L593 367L588 365L589 363L586 361L586 357L582 357L582 355L588 351L591 353L594 351L595 352L595 346L598 339L596 333L597 332L595 333L600 323L599 321L601 313L601 311L598 310L590 300L589 301L585 299L585 297L587 297L588 294L586 292L586 288L595 285L596 287L598 286L600 289L604 285L603 284L608 282L607 279L609 276L611 276L612 281L616 286L620 284L622 286L625 285L636 272L638 273L644 269L646 271L650 270L651 272L649 279L653 283L667 272L668 274L669 273L672 280L670 283L671 286L673 286L679 275L688 268L688 271L691 270L693 268L693 265L700 260L699 258L705 256L706 252L721 243L727 246L728 244L730 245L732 251L735 254L738 254L744 244L744 238L746 235L743 234L743 229L741 229L743 226L741 223L744 220L747 220L747 217L749 216L747 214L744 199L745 197L743 193L744 192L740 189L735 189L729 182L726 183L725 182L729 178L725 179L725 177L721 177L716 173L712 175L706 174L705 173L709 168L707 166L706 159L702 156L696 157L689 155L667 157L663 152L663 150L665 150L664 148L657 145L657 141L651 138L646 132L638 128L628 126L625 122L620 121L615 114L610 115L604 109L602 109L602 107L599 107L595 104L592 106L585 105L583 107L590 116L588 119L580 119L582 121L578 124L582 127L580 129L576 126L573 129L574 135L576 135L579 141L584 142L584 144L591 147L590 148L592 150L593 149L597 152L594 154L596 155L595 159L598 161L593 163L591 167L589 165L587 166L583 172L583 175L580 175L578 179L566 180L566 183L569 184L567 191L563 193L565 197L556 205L550 206L551 209L555 208L557 211L553 216L554 217L549 221L551 223L551 226L554 227L549 230L547 234L543 234L544 241L548 242L535 255L526 251L527 247L525 245L518 248L515 252L512 249L505 250L504 248L501 250L503 253L499 256L500 257L498 256L498 259L496 259L499 266L504 270L502 275L496 281L498 282L496 284L495 283L490 290L488 295L489 296L481 308L481 311L467 326L467 329L466 328L464 330L465 332L463 334L461 332L461 335L459 334L456 329L453 331L453 334L450 335L445 335L443 333L442 335L434 336L430 330L430 326L427 320L425 320L425 318L424 319L424 310L422 307L417 305L413 308L406 306L407 307L405 308L406 309L404 309L405 311L403 313L401 311L402 313L394 313L393 317L392 318L392 316L390 316L391 317L388 320L388 317L386 317L385 314L383 314L383 309L381 305L380 306L378 304L379 306L376 306L374 302L373 303L368 299L361 299L359 297L357 298L358 296L355 296L355 298L355 295L352 297L350 292L348 293L347 296L345 296L344 301L342 303L343 305L340 304L340 309L342 309L342 311L337 312L336 310L332 309L333 315L336 316L334 316L334 319L325 319L324 321L326 323L327 321L330 322L327 324L330 327L334 328L334 330L337 331L340 335L341 334L344 336L340 346L342 352L340 355L332 354L329 357L329 361L327 363L328 364L326 367L325 366L323 371L323 369L320 368L318 369L319 371L314 371L312 373L311 372L309 378L308 377L305 381L305 379L302 385L305 391L305 396L311 396L312 397L309 399L313 399L316 401L316 403L313 406L315 410L317 409L319 411L317 413L322 413L323 415L330 414L331 416L333 414L336 416L336 414L340 412L338 415L340 418L339 422L342 429L344 429L342 430L344 436L343 439L345 441L345 444L349 448L347 449L348 450L355 450L358 453L358 451L364 446L365 447L365 445L368 448L370 447L371 453L372 451L376 453L382 451L384 452L390 458L389 465L391 466L391 470L393 471L394 477L396 478L394 479L398 486L397 490L399 492L403 487L410 492L412 490L409 486L412 486L413 488L414 487L411 484L412 478L415 477L413 475L413 472L408 468L407 464L409 461L408 460L410 460L411 463L418 469L417 471L419 474L422 476L423 475L422 476L426 479L423 480L423 488L420 492L417 493L418 496L420 496L420 494L424 494L425 497L429 496L429 499L431 500L434 498L432 493L433 490L437 488L435 483L442 485L446 478L447 475L444 474L445 473L441 468L443 466L450 463L453 466L456 466L456 458L459 455L461 455L461 457L463 456L462 454L464 455L464 457L466 454L471 456L475 454L475 459L478 460L477 466L480 468L481 464L487 463L489 461L488 459L491 459L493 457L496 450L498 449L494 446L494 444L491 443L493 439L491 433L495 433L496 430L494 423L500 422L499 424L502 425L508 420L510 421L510 425L512 427L517 426L521 428L524 425L523 424L526 422L530 428L529 438L532 439L531 444L534 447L536 447L538 442L540 442L542 439L551 439L555 434L562 437L566 435L569 438L569 440L572 438L573 433L576 434L576 442zM649 277L649 274L647 275L649 277zM328 325L328 325zM648 277L649 278zM463 334L462 334z" id="重庆市"/><path class="leaflet-interactive" stroke="#333" stroke-opacity="1" stroke-width="1" stroke-linecap="round" stroke-linejoin="round" stroke-dasharray="1,6" fill="#eee" fill-opacity="0.5" fill-rule="evenodd" d="M552 278L558 278L558 276L560 276L560 279L564 281L563 283L566 284L569 288L569 294L575 296L585 280L587 286L592 287L593 285L595 285L596 287L598 286L600 289L604 285L603 284L608 282L607 279L609 276L611 276L612 281L616 286L620 284L622 286L625 285L631 277L628 274L630 267L628 265L624 267L623 265L619 265L621 264L618 263L616 253L612 253L608 244L605 246L606 241L604 239L600 242L596 235L597 233L590 236L588 232L579 237L581 240L580 241L572 246L569 245L569 247L565 251L558 251L557 246L555 244L552 246L549 242L537 252L540 258L545 262L556 263L556 267L553 269L552 268L550 272L551 276z" id="万州区"/><path class="leaflet-interactive" stroke="#333" stroke-opacity="1" stroke-width="1" stroke-linecap="round" stroke-linejoin="round" stroke-dasharray="1,6" fill="#eee" fill-opacity="0.5" fill-rule="evenodd" d="M521 379L523 374L519 374L515 370L516 365L514 364L516 363L516 358L512 358L512 354L514 352L512 350L512 347L510 346L509 343L505 341L504 343L499 338L496 342L495 341L492 348L489 350L487 354L477 355L477 358L475 358L474 360L467 364L465 363L460 368L458 368L452 391L458 394L459 392L461 394L460 400L464 405L468 405L467 403L471 402L471 399L476 400L476 405L478 405L479 398L480 399L483 397L486 392L493 387L497 392L501 390L506 399L514 392L513 387L515 387L521 380z" id="涪陵区"/><path class="leaflet-interactive" stroke="#333" stroke-opacity="1" stroke-width="1" stroke-linecap="round" stroke-linejoin="round" stroke-dasharray="1,6" fill="#eee" fill-opacity="0.5" fill-rule="evenodd" d="M420 383L410 386L412 388L415 388L415 386L420 385z" id="渝中区"/><path class="leaflet-interactive" stroke="#333" stroke-opacity="1" stroke-width="1" stroke-linecap="round" stroke-linejoin="round" stroke-dasharray="1,6" fill="#eee" fill-opacity="0.5" fill-rule="evenodd" d="M405 398L402 398L404 404L402 406L403 407L406 406L411 401L414 402L412 396L412 393L414 393L412 391L409 391L407 395L408 398L406 400z" id="大渡口区"/><path class="leaflet-interactive" stroke="#333" stroke-opacity="1" stroke-width="1" stroke-linecap="round" stroke-linejoin="round" stroke-dasharray="1,6" fill="#eee" fill-opacity="0.5" fill-rule="evenodd" d="M408 379L407 382L409 382L411 385L420 383L420 379L423 379L428 384L433 382L434 379L441 381L443 383L448 374L445 375L440 372L435 375L433 373L433 375L431 375L431 377L429 378L422 376L419 377L416 382L412 383L410 379z" id="江北区"/><path class="leaflet-interactive" stroke="#333" stroke-opacity="1" stroke-width="1" stroke-linecap="round" stroke-linejoin="round" stroke-dasharray="1,6" fill="#eee" fill-opacity="0.5" fill-rule="evenodd" d="M410 386L411 385L409 382L407 382L409 375L408 373L405 374L407 365L404 364L404 366L394 366L392 370L393 376L391 377L389 387L394 387L399 384L401 387L404 386L403 391L407 391L408 388L410 387z" id="沙坪坝区"/><path class="leaflet-interactive" stroke="#333" stroke-opacity="1" stroke-width="1" stroke-linecap="round" stroke-linejoin="round" stroke-dasharray="1,6" fill="#eee" fill-opacity="0.5" fill-rule="evenodd" d="M389 387L390 396L396 398L396 402L392 403L392 406L390 408L393 409L392 413L394 416L402 412L401 410L404 404L402 398L403 397L406 400L408 399L407 395L409 391L412 391L416 394L417 392L415 388L412 388L411 386L408 387L407 390L403 391L404 386L401 387L399 384L397 386L393 386L390 388zM405 398L405 398zM404 397L404 397z" id="九龙坡区"/><path class="leaflet-interactive" stroke="#333" stroke-opacity="1" stroke-width="1" stroke-linecap="round" stroke-linejoin="round" stroke-dasharray="1,6" fill="#eee" fill-opacity="0.5" fill-rule="evenodd" d="M439 381L434 379L434 381L429 384L426 381L425 382L423 379L421 379L419 381L420 385L415 386L415 390L419 394L422 393L428 395L429 392L433 392L438 383z" id="南岸区"/><path class="leaflet-interactive" stroke="#333" stroke-opacity="1" stroke-width="1" stroke-linecap="round" stroke-linejoin="round" stroke-dasharray="1,6" fill="#eee" fill-opacity="0.5" fill-rule="evenodd" d="M425 329L420 333L421 334L418 337L416 345L412 345L408 352L408 346L406 349L405 348L405 350L402 349L401 346L395 350L397 353L396 354L398 355L398 358L400 358L395 363L394 366L396 367L401 365L404 366L404 364L406 365L407 367L405 374L407 375L408 371L412 371L415 367L413 362L415 362L415 364L420 364L420 361L422 359L420 358L426 353L428 348L427 347L429 345L427 335L428 332z" id="北碚区"/><path class="leaflet-interactive" stroke="#333" stroke-opacity="1" stroke-width="1" stroke-linecap="round" stroke-linejoin="round" stroke-dasharray="1,6" fill="#eee" fill-opacity="0.5" fill-rule="evenodd" d="M463 454L461 451L463 450L459 448L460 444L458 441L456 441L455 437L453 437L453 435L452 438L450 438L450 432L448 429L444 426L441 427L440 424L438 424L437 426L435 424L433 426L429 423L427 426L423 426L419 431L420 440L422 441L420 442L417 442L417 440L414 439L411 434L410 442L407 439L409 438L401 440L404 448L404 456L406 456L408 460L410 460L411 463L418 469L417 471L419 474L422 476L423 475L422 476L426 479L423 480L423 488L420 492L417 493L418 496L420 496L420 494L424 494L425 497L429 496L429 499L431 500L434 498L432 493L433 490L437 488L435 483L442 485L447 475L444 474L445 473L441 468L450 463L453 466L456 466L456 458L459 455L461 455L461 457L463 456L462 454z" id="綦江区"/><path class="leaflet-interactive" stroke="#333" stroke-opacity="1" stroke-width="1" stroke-linecap="round" stroke-linejoin="round" stroke-dasharray="1,6" fill="#eee" fill-opacity="0.5" fill-rule="evenodd" d="M319 372L322 376L322 382L328 381L330 385L328 389L332 390L333 392L334 390L336 391L336 395L338 396L340 394L342 396L341 401L343 401L343 404L346 402L345 400L348 397L353 386L354 387L356 383L361 379L361 377L367 372L369 365L366 364L366 361L361 362L359 360L358 361L357 359L357 361L354 364L351 364L346 358L345 360L340 360L343 354L342 353L340 355L332 354L329 357L327 366L325 366L323 371L323 369L318 369L319 371z" id="大足区"/><path class="leaflet-interactive" stroke="#333" stroke-opacity="1" stroke-width="1" stroke-linecap="round" stroke-linejoin="round" stroke-dasharray="1,6" fill="#eee" fill-opacity="0.5" fill-rule="evenodd" d="M448 374L455 363L452 359L452 351L456 345L451 341L445 340L445 335L443 333L442 335L434 336L430 330L429 325L426 329L428 332L428 348L425 354L420 358L420 363L415 365L416 363L413 362L415 367L412 371L408 371L408 379L410 379L412 383L418 381L421 376L429 378L431 377L431 375L433 375L433 373L435 375L438 374L439 372L441 374L446 374z" id="渝北区"/><path class="leaflet-interactive" stroke="#333" stroke-opacity="1" stroke-width="1" stroke-linecap="round" stroke-linejoin="round" stroke-dasharray="1,6" fill="#eee" fill-opacity="0.5" fill-rule="evenodd" d="M417 392L416 394L412 393L415 402L411 401L406 406L410 405L409 408L413 414L413 419L416 421L418 426L416 427L417 429L420 430L423 426L426 426L429 423L433 426L435 424L437 426L438 424L440 424L441 427L444 426L448 429L448 423L449 422L450 424L452 424L455 420L450 411L450 401L452 397L451 394L453 390L454 380L458 368L456 362L452 367L451 371L449 372L444 383L439 381L434 392L430 392L428 395L422 393L419 394L418 392z" id="巴南区"/><path class="leaflet-interactive" stroke="#333" stroke-opacity="1" stroke-width="1" stroke-linecap="round" stroke-linejoin="round" stroke-dasharray="1,6" fill="#eee" fill-opacity="0.5" fill-rule="evenodd" d="M599 428L603 432L602 433L603 434L604 431L606 435L609 435L611 431L615 434L622 429L626 432L630 421L633 419L635 414L631 412L634 400L627 394L629 391L629 385L632 383L630 382L630 380L627 380L629 378L625 374L624 375L624 373L623 376L620 377L619 375L621 375L621 373L618 370L617 371L620 375L617 375L613 372L613 370L611 371L609 355L605 352L603 352L597 361L596 363L598 364L596 367L594 367L596 372L594 372L593 376L593 378L597 381L598 385L597 387L594 387L594 391L595 390L602 393L602 397L598 403L600 406L598 409L602 413L598 421L601 426L600 427z" id="黔江区"/><path class="leaflet-interactive" stroke="#333" stroke-opacity="1" stroke-width="1" stroke-linecap="round" stroke-linejoin="round" stroke-dasharray="1,6" fill="#eee" fill-opacity="0.5" fill-rule="evenodd" d="M455 363L456 362L456 365L458 368L460 368L465 363L467 364L474 360L475 358L477 358L477 355L485 355L488 352L488 350L491 348L492 349L495 341L496 342L499 337L497 335L491 341L488 341L484 338L486 337L480 330L484 328L484 325L482 324L484 320L478 315L467 326L467 329L466 328L464 330L465 332L463 334L461 332L461 335L459 334L456 329L453 331L453 334L445 335L445 340L451 341L455 345L452 353L452 361L454 362zM463 334L462 334z" id="长寿区"/><path class="leaflet-interactive" stroke="#333" stroke-opacity="1" stroke-width="1" stroke-linecap="round" stroke-linejoin="round" stroke-dasharray="1,6" fill="#eee" fill-opacity="0.5" fill-rule="evenodd" d="M351 449L355 450L358 453L358 451L364 446L365 447L365 445L368 448L370 447L371 453L372 451L376 453L382 451L384 452L390 458L389 465L391 466L391 470L393 471L394 477L396 478L394 479L398 486L397 490L399 492L403 487L410 492L412 490L409 486L412 486L413 488L414 487L411 484L412 478L415 477L413 475L413 472L408 468L407 464L409 461L407 457L404 456L404 448L401 440L409 438L407 439L410 442L411 434L417 440L416 442L422 441L420 441L419 429L416 428L418 426L409 408L410 406L408 405L402 407L402 412L395 416L392 413L393 409L390 408L392 404L395 402L396 398L390 396L387 406L382 411L377 414L376 412L374 412L373 409L370 409L369 416L365 423L363 424L363 427L359 433L359 437L353 441L353 444L350 448z" id="江津区"/><path class="leaflet-interactive" stroke="#333" stroke-opacity="1" stroke-width="1" stroke-linecap="round" stroke-linejoin="round" stroke-dasharray="1,6" fill="#eee" fill-opacity="0.5" fill-rule="evenodd" d="M425 329L427 328L428 323L427 320L425 320L425 318L424 319L424 310L422 307L417 305L413 308L406 306L407 307L405 308L406 309L404 309L405 311L403 313L401 311L402 313L394 313L393 317L392 318L392 316L390 316L391 317L388 320L388 317L386 317L385 314L383 314L383 309L381 305L380 306L378 304L379 306L376 306L374 302L373 303L368 299L364 299L364 308L368 310L365 312L365 314L368 317L366 320L364 318L364 322L366 325L366 335L371 337L369 338L370 339L378 338L377 342L378 345L381 347L384 345L391 350L392 349L392 352L390 354L391 355L395 350L401 346L402 349L404 350L408 346L407 350L409 352L410 348L414 346L414 344L416 345L418 337L421 335L420 333L424 330zM389 348L389 348z" id="合川区"/><path class="leaflet-interactive" stroke="#333" stroke-opacity="1" stroke-width="1" stroke-linecap="round" stroke-linejoin="round" stroke-dasharray="1,6" fill="#eee" fill-opacity="0.5" fill-rule="evenodd" d="M336 414L340 412L338 415L340 418L340 425L342 429L344 429L342 430L344 436L343 439L345 441L345 444L349 448L347 449L351 449L350 448L353 445L353 441L359 437L358 433L369 416L373 402L372 399L374 387L367 389L366 386L363 387L361 385L359 387L356 383L354 387L353 386L351 388L348 397L345 400L346 402L334 407L335 408L334 410L333 409L333 412L335 413z" id="永川区"/><path class="leaflet-interactive" stroke="#333" stroke-opacity="1" stroke-width="1" stroke-linecap="round" stroke-linejoin="round" stroke-dasharray="1,6" fill="#eee" fill-opacity="0.5" fill-rule="evenodd" d="M463 454L464 457L466 454L471 456L475 454L475 459L478 460L477 466L480 468L481 464L487 463L489 461L488 459L491 459L493 457L496 450L498 449L494 446L494 444L491 443L493 439L491 433L495 433L496 430L493 421L496 414L493 414L493 409L491 407L487 407L482 405L481 403L479 403L479 405L476 405L477 401L473 399L470 400L471 402L467 402L468 405L464 405L460 401L461 394L452 391L450 414L455 420L452 424L450 424L449 422L448 423L448 429L450 432L449 436L451 438L453 435L456 441L458 441L460 444L459 448L463 450L461 451z" id="南川区"/><path class="leaflet-interactive" stroke="#333" stroke-opacity="1" stroke-width="1" stroke-linecap="round" stroke-linejoin="round" stroke-dasharray="1,6" fill="#eee" fill-opacity="0.5" fill-rule="evenodd" d="M389 387L390 381L393 376L392 369L395 363L400 358L398 358L398 355L397 356L398 355L396 354L397 353L395 350L388 359L381 363L382 371L374 385L372 404L370 409L373 409L377 413L387 406L391 391L389 389z" id="璧山区"/><path class="leaflet-interactive" stroke="#333" stroke-opacity="1" stroke-width="1" stroke-linecap="round" stroke-linejoin="round" stroke-dasharray="1,6" fill="#eee" fill-opacity="0.5" fill-rule="evenodd" d="M365 332L363 330L362 332L359 328L356 334L355 333L354 335L354 337L358 339L358 342L361 345L360 346L362 348L360 352L358 352L355 349L352 349L352 351L350 351L349 355L346 358L351 364L354 364L357 361L357 359L361 362L366 361L366 365L369 365L370 367L367 372L356 383L358 384L358 387L366 386L367 389L373 387L376 383L378 376L382 371L381 363L388 359L391 355L390 354L392 349L391 350L384 345L378 346L378 338L369 339L371 337L366 335L365 333zM388 347L388 348zM381 346L381 347z" id="铜梁区"/><path class="leaflet-interactive" stroke="#333" stroke-opacity="1" stroke-width="1" stroke-linecap="round" stroke-linejoin="round" stroke-dasharray="1,6" fill="#eee" fill-opacity="0.5" fill-rule="evenodd" d="M342 353L343 354L341 356L341 361L343 359L345 360L347 356L349 356L350 351L352 351L352 349L359 352L360 351L362 348L360 346L361 345L358 340L359 339L354 337L355 333L357 333L359 328L361 332L365 332L366 326L364 323L364 318L366 320L368 317L365 312L368 310L365 309L363 306L365 305L364 299L361 299L359 297L357 298L358 296L355 296L355 298L355 295L352 297L350 292L348 293L347 296L345 296L344 301L342 303L343 305L340 304L340 309L342 309L342 311L337 312L336 310L332 309L333 315L336 316L334 316L334 319L325 319L324 321L326 323L327 321L330 322L327 324L330 327L334 328L334 330L337 331L340 335L341 334L344 336L340 346L342 352zM328 325L328 325z" id="潼南区"/><path class="leaflet-interactive" stroke="#333" stroke-opacity="1" stroke-width="1" stroke-linecap="round" stroke-linejoin="round" stroke-dasharray="1,6" fill="#eee" fill-opacity="0.5" fill-rule="evenodd" d="M336 414L333 412L333 409L334 410L335 406L336 407L342 403L342 397L340 394L338 396L336 395L336 391L334 391L333 393L329 389L329 381L326 381L325 383L324 381L322 382L322 376L320 372L311 372L309 378L308 377L305 381L305 379L302 385L305 391L305 396L311 396L312 397L309 399L313 399L316 401L316 403L313 406L315 410L317 409L319 411L317 413L322 413L323 415L330 414L331 416L333 414L336 415z" id="荣昌区"/><path class="leaflet-interactive" stroke="#333" stroke-opacity="1" stroke-width="1" stroke-linecap="round" stroke-linejoin="round" stroke-dasharray="1,6" fill="#eee" fill-opacity="0.5" fill-rule="evenodd" d="M598 161L593 163L591 167L589 165L587 166L583 172L583 175L580 175L578 179L566 180L566 183L569 184L567 191L563 193L565 197L556 205L550 206L551 209L555 208L557 211L553 216L554 217L549 221L551 223L551 226L554 227L549 230L547 234L543 234L543 238L544 241L548 242L552 246L555 244L558 246L558 251L564 251L569 247L569 245L571 244L572 246L580 241L581 240L579 237L581 237L588 231L592 230L592 227L597 224L597 222L599 223L598 221L603 216L603 214L601 213L603 208L607 204L606 202L608 202L606 198L611 196L613 193L612 192L615 191L618 186L612 183L612 180L618 179L618 176L621 174L621 171L625 171L628 168L630 168L630 163L625 160L620 159L617 162L617 164L613 166L608 166L600 161z" id="开州区"/><path class="leaflet-interactive" stroke="#333" stroke-opacity="1" stroke-width="1" stroke-linecap="round" stroke-linejoin="round" stroke-dasharray="1,6" fill="#eee" fill-opacity="0.5" fill-rule="evenodd" d="M537 252L535 255L526 251L527 247L525 245L518 248L515 252L512 249L505 250L504 248L501 250L503 253L499 256L500 257L498 256L498 259L496 259L499 266L504 270L502 275L496 281L498 282L494 284L501 288L506 285L508 285L509 288L515 287L515 289L519 290L517 293L518 294L525 284L527 284L531 289L531 283L536 279L537 281L539 281L538 284L543 287L545 282L546 283L552 278L550 272L552 268L556 268L556 263L545 262L538 253z" id="梁平区"/><path class="leaflet-interactive" stroke="#333" stroke-opacity="1" stroke-width="1" stroke-linecap="round" stroke-linejoin="round" stroke-dasharray="1,6" fill="#eee" fill-opacity="0.5" fill-rule="evenodd" d="M494 424L500 422L499 424L502 425L508 420L510 421L510 425L512 427L517 426L521 428L524 425L523 424L526 422L530 428L529 438L534 439L537 437L540 425L539 424L545 423L548 418L549 419L549 410L546 405L548 401L547 399L550 396L550 390L555 386L554 384L556 381L554 378L548 377L544 380L542 374L535 373L533 385L529 384L527 380L524 382L522 379L515 387L513 387L514 392L506 399L501 391L499 390L500 391L498 392L493 387L487 390L483 397L478 399L479 402L484 406L491 407L493 409L491 412L496 414L493 421z" id="武隆区"/><path class="leaflet-interactive" stroke="#333" stroke-opacity="1" stroke-width="1" stroke-linecap="round" stroke-linejoin="round" stroke-dasharray="1,6" fill="#eee" fill-opacity="0.5" fill-rule="evenodd" d="M665 156L663 152L663 150L665 150L664 148L657 145L657 141L651 138L646 132L638 128L628 126L625 122L620 121L615 114L610 115L604 109L602 109L602 107L599 107L595 104L592 106L585 105L583 107L590 116L588 119L580 119L582 121L578 124L582 127L580 129L576 126L573 129L574 135L576 135L579 141L584 142L584 144L591 147L590 148L592 150L593 149L597 152L594 154L596 155L595 159L608 166L615 165L620 159L627 160L629 163L639 163L639 159L652 157L654 159L660 159L660 156L664 156z" id="城口县"/><path class="leaflet-interactive" stroke="#333" stroke-opacity="1" stroke-width="1" stroke-linecap="round" stroke-linejoin="round" stroke-dasharray="1,6" fill="#eee" fill-opacity="0.5" fill-rule="evenodd" d="M521 379L524 382L526 380L533 386L535 373L541 374L544 380L547 377L562 380L565 375L563 376L561 374L565 370L564 365L566 365L568 362L565 359L566 358L564 355L562 356L562 354L557 355L554 353L555 352L552 349L553 348L548 342L551 339L551 335L545 332L539 326L537 328L536 326L533 327L532 324L534 322L526 316L527 313L525 313L525 315L519 315L518 311L515 316L513 316L512 319L509 321L510 326L509 325L508 328L505 330L506 331L501 339L504 343L505 341L512 347L514 352L512 354L512 358L516 358L516 363L514 364L516 365L515 370L519 374L523 374L521 378z" id="丰都县"/><path class="leaflet-interactive" stroke="#333" stroke-opacity="1" stroke-width="1" stroke-linecap="round" stroke-linejoin="round" stroke-dasharray="1,6" fill="#eee" fill-opacity="0.5" fill-rule="evenodd" d="M499 338L502 338L506 332L505 330L508 328L509 325L510 326L509 321L512 319L512 317L510 315L507 318L507 314L510 313L509 310L512 307L512 305L509 304L518 294L517 293L519 290L515 289L515 287L513 289L509 288L508 285L501 288L494 284L490 290L488 298L485 301L478 315L484 320L482 323L484 324L484 328L480 330L486 336L484 338L487 341L491 341L497 335L498 337z" id="垫江县"/><path class="leaflet-interactive" stroke="#333" stroke-opacity="1" stroke-width="1" stroke-linecap="round" stroke-linejoin="round" stroke-dasharray="1,6" fill="#eee" fill-opacity="0.5" fill-rule="evenodd" d="M569 294L570 290L566 284L563 283L564 281L562 282L559 277L560 276L558 276L558 278L552 278L546 283L545 282L543 286L538 284L538 281L536 279L533 280L531 283L532 289L525 283L518 294L510 302L509 304L512 305L512 307L509 310L510 313L507 314L507 318L509 317L509 315L511 317L515 316L517 311L519 312L519 315L522 313L522 315L527 313L526 316L534 321L531 326L536 326L537 328L539 326L543 331L547 333L551 329L551 331L553 331L557 325L555 320L558 316L560 316L560 314L558 315L557 313L560 313L560 307L562 307L563 304L559 304L556 301L560 300L564 295L567 295z" id="忠县"/><path class="leaflet-interactive" stroke="#333" stroke-opacity="1" stroke-width="1" stroke-linecap="round" stroke-linejoin="round" stroke-dasharray="1,6" fill="#eee" fill-opacity="0.5" fill-rule="evenodd" d="M631 277L636 272L638 273L641 271L641 263L645 259L643 253L644 247L652 247L651 245L653 246L654 242L653 239L659 241L659 234L662 230L660 227L659 228L654 225L653 227L648 226L649 220L645 219L644 216L644 213L646 214L646 212L648 212L646 204L643 202L644 194L630 191L630 196L625 196L623 191L621 190L622 188L619 186L612 192L612 196L606 198L608 201L606 202L607 204L603 208L603 216L598 221L599 223L597 222L598 224L595 224L592 227L592 229L586 232L590 233L590 236L594 236L594 234L597 233L599 242L604 239L606 241L605 246L608 244L612 253L616 253L618 263L621 264L619 265L623 265L624 267L628 265L630 267L628 274z" id="云阳县"/><path class="leaflet-interactive" stroke="#333" stroke-opacity="1" stroke-width="1" stroke-linecap="round" stroke-linejoin="round" stroke-dasharray="1,6" fill="#eee" fill-opacity="0.5" fill-rule="evenodd" d="M649 279L653 283L667 272L668 274L669 273L672 280L670 283L671 286L673 286L679 275L686 269L688 268L688 271L693 268L693 265L700 260L695 250L695 247L691 246L691 244L694 243L695 241L694 231L705 225L705 223L709 220L709 214L698 214L696 212L697 209L693 209L690 206L680 206L679 208L675 207L674 203L670 200L669 196L651 193L647 193L644 195L642 202L646 204L648 210L646 214L644 213L645 219L649 220L648 226L653 227L654 225L662 229L659 234L659 240L654 239L653 246L651 245L652 247L644 247L643 253L645 258L641 262L641 270L650 270L651 272L649 278zM649 277L649 274L647 275L648 277zM648 277L649 278z" id="奉节县"/><path class="leaflet-interactive" stroke="#333" stroke-opacity="1" stroke-width="1" stroke-linecap="round" stroke-linejoin="round" stroke-dasharray="1,6" fill="#eee" fill-opacity="0.5" fill-rule="evenodd" d="M699 258L705 256L706 252L721 243L727 246L728 244L730 245L732 251L735 254L738 254L744 244L744 238L746 235L743 234L743 229L741 229L743 226L741 223L744 220L747 220L747 217L749 216L747 214L744 199L745 197L743 193L744 192L740 189L735 189L729 182L725 182L725 189L723 191L711 192L709 196L706 195L704 201L698 200L691 207L692 209L696 208L698 214L700 213L703 215L710 215L708 219L709 220L705 223L705 225L695 231L695 243L691 244L691 246L695 247L699 256z" id="巫山县"/><path class="leaflet-interactive" stroke="#333" stroke-opacity="1" stroke-width="1" stroke-linecap="round" stroke-linejoin="round" stroke-dasharray="1,6" fill="#eee" fill-opacity="0.5" fill-rule="evenodd" d="M725 182L729 178L725 179L725 177L721 177L716 173L712 175L706 174L705 173L709 168L707 166L706 159L702 156L696 157L692 155L677 157L667 157L660 155L660 158L658 159L654 159L652 157L640 159L639 163L631 162L629 166L630 167L626 171L621 171L621 174L618 176L618 178L612 179L612 182L616 186L617 185L622 188L621 190L623 191L623 195L625 196L630 196L630 191L644 194L664 194L669 196L670 200L674 202L675 207L691 207L695 201L704 201L705 195L709 196L711 192L722 191L725 189L725 184z" id="巫溪县"/><path class="leaflet-interactive" stroke="#333" stroke-opacity="1" stroke-width="1" stroke-linecap="round" stroke-linejoin="round" stroke-dasharray="1,6" fill="#eee" fill-opacity="0.5" fill-rule="evenodd" d="M587 287L585 280L575 296L572 297L569 294L565 295L562 297L561 300L556 301L559 304L563 304L560 307L560 313L557 312L558 314L560 314L554 322L557 325L556 327L553 331L551 331L552 329L548 333L551 335L551 339L548 342L553 348L552 349L555 351L554 353L556 355L564 355L566 358L565 359L568 362L566 365L564 365L565 370L561 374L563 376L571 364L575 367L576 366L578 369L582 368L581 364L584 358L582 357L582 355L588 351L591 353L594 351L595 352L596 349L595 346L598 339L596 333L597 332L595 333L600 323L599 321L601 311L598 310L590 300L589 301L585 299L585 297L587 297L588 294L586 292L586 288z" id="石柱土家族自治县"/><path class="leaflet-interactive" stroke="#333" stroke-opacity="1" stroke-width="1" stroke-linecap="round" stroke-linejoin="round" stroke-dasharray="1,6" fill="#eee" fill-opacity="0.5" fill-rule="evenodd" d="M614 496L617 499L616 500L619 501L618 507L620 507L618 515L614 517L618 527L622 521L626 526L632 524L633 527L640 530L642 524L646 527L648 526L647 519L650 518L653 511L653 503L654 504L657 498L664 495L664 491L669 486L667 482L663 484L661 482L658 485L656 483L658 480L664 477L662 475L667 470L661 466L661 455L657 456L648 462L649 463L645 467L644 472L641 475L639 474L635 483L629 482L623 484L620 490L618 490L615 493z" id="秀山土家族苗族自治县"/><path class="leaflet-interactive" stroke="#333" stroke-opacity="1" stroke-width="1" stroke-linecap="round" stroke-linejoin="round" stroke-dasharray="1,6" fill="#eee" fill-opacity="0.5" fill-rule="evenodd" d="M661 455L663 452L663 448L669 438L667 435L661 434L661 430L656 425L653 425L649 420L652 415L651 413L649 413L650 405L645 401L642 403L643 405L640 405L637 409L635 408L631 410L631 412L634 414L634 417L630 421L626 429L626 432L620 430L615 434L612 433L611 431L609 435L606 435L604 431L603 434L603 432L599 428L594 433L580 440L578 443L578 448L580 449L581 462L584 465L580 470L579 475L580 477L591 482L594 482L594 480L600 478L604 481L605 480L606 482L603 485L604 491L601 492L604 504L601 506L601 511L606 513L610 511L608 509L609 507L612 506L607 499L608 497L611 497L613 495L614 496L615 493L618 490L620 490L621 486L626 483L634 483L639 474L641 475L644 472L645 468L649 463L648 462L659 455z" id="酉阳土家族苗族自治县"/><path class="leaflet-interactive" stroke="#333" stroke-opacity="1" stroke-width="1" stroke-linecap="round" stroke-linejoin="round" stroke-dasharray="1,6" fill="#eee" fill-opacity="0.5" fill-rule="evenodd" d="M577 443L582 438L586 438L588 435L589 436L596 432L596 429L601 426L598 421L602 413L601 411L598 410L600 406L598 404L599 400L602 397L602 393L595 390L594 391L593 389L595 386L598 386L597 381L593 376L596 370L590 365L588 365L589 363L586 361L587 359L585 356L581 364L581 368L578 369L576 366L575 367L571 364L566 373L564 374L565 378L563 380L555 380L555 385L550 390L550 396L547 399L548 401L546 405L549 410L549 419L548 418L545 423L539 424L540 425L537 437L535 439L532 439L531 444L534 447L536 447L538 442L540 442L542 439L551 439L555 434L562 437L566 435L569 438L569 440L572 438L573 433L576 434L576 442z" id="彭水苗族土家族自治县"/></g></svg>