<svg t="1682670101209" class="icon" viewBox="0 0 1024 1024" version="1.1" xmlns="http://www.w3.org/2000/svg" p-id="4031" id="mx_n_1682670101211" data-spm-anchor-id="a313x.7781069.0.i14" width="32" height="32"><path d="M384 298.439111a42.666667 42.666667 0 0 1 42.666667 42.666667v526.222222H213.333333a42.666667 42.666667 0 0 1-42.666666-42.666667v-483.555555a42.666667 42.666667 0 0 1 42.666666-42.666667h170.666667z m1.664 28.544L384 326.883556H213.333333a14.222222 14.222222 0 0 0-14.122666 12.572444l-0.099556 1.649778v483.555555a14.222222 14.222222 0 0 0 12.558222 14.136889l1.664 0.085334h184.888889v-497.777778a14.222222 14.222222 0 0 0-10.951111-13.838222l-1.607111-0.284445z" fill="#275AA1" p-id="4032"></path><path d="M348.416 199.722667l0.071111 2.602666v46.734223l5.333333 4.352c19.2 16.014222 34.275556 32.284444 45.184 48.910222l2.872889 4.551111-24.291555 14.791111c-10.154667-16.682667-25.799111-33.564444-46.990222-50.488889l-4.992-3.925333-5.546667-4.266667v-60.657778c0-9.031111-6.869333-16.455111-15.658667-17.351111l-1.848889-0.085333a17.294222 17.294222 0 0 0-17.237333 17.351111v44.316444c-0.028444 3.669333-0.071111 6.542222-0.113778 8.675556l-0.341333 11.576889-10.012445 2.844444c-9.045333 2.588444-27.889778 19.541333-53.76 50.019556l-3.128888 3.712-21.816889-18.261333c24.021333-28.672 42.922667-47.473778 58.097777-56.860445l2.631112-1.564444 0.056888-18.716445-0.056888-25.642666a45.738667 45.738667 0 0 1 42.993777-45.809778l2.744889-0.085334a45.880889 45.880889 0 0 1 45.809778 43.278223z" fill="#275AA1" p-id="4033"></path><path d="M184.888889 412.216889h227.555555v14.222222H184.888889zM213.333333 355.328h42.666667v56.888889h-42.666667zM213.333333 454.883556h42.666667v42.666666h-42.666667zM277.162667 454.883556h42.666666v42.666666h-42.666666zM256 525.994667h14.222222v327.111111h-14.222222zM327.111111 525.994667h14.222222v327.111111h-14.222222zM341.333333 454.883556h42.666667v42.666666h-42.666667zM270.222222 355.328h56.888889v56.888889h-56.888889zM341.333333 355.328h42.666667v56.888889h-42.666667z" fill="#275AA1" p-id="4034"></path><path d="M793.998222 689.550222v149.333334a28.444444 28.444444 0 0 1-26.325333 28.373333l-2.133333 0.071111H426.666667v-28.444444h338.887111v-149.333334h28.444444z" fill="#275AA1" p-id="4035"></path><path d="M733.681778 611.328a126.549333 126.549333 0 0 1 118.314666 81.635556l1.336889 3.697777H412.444444v-85.333333h321.237334z m-307.015111 71.111111h404.693333l-1.237333-2.161778a112.355556 112.355556 0 0 0-92.444445-54.656l-3.982222-0.071111H426.666667v56.888889zM629.674667 511.772444a113.422222 113.422222 0 0 1 108.913777 81.777778l0.967112 3.555556H412.444444v-85.333334h217.230223z m-203.008 71.111112h292.721777l-1.28-2.659556a99.228444 99.228444 0 0 0-84.664888-54.158222l-3.768889-0.071111H426.666667v56.888889z" fill="#275AA1" p-id="4036"></path><path d="M412.444444 412.216889c48.568889 0 96.028444 14.620444 136.177778 41.941333L654.222222 525.994667H412.444444v-113.777778z m14.222223 14.691555v84.864h181.361777l-67.413333-45.852444a227.868444 227.868444 0 0 0-110.350222-38.784L426.666667 426.908444z" fill="#275AA1" p-id="4037"></path><path d="M455.111111 696.661333h28.444445v42.666667h-28.444445zM455.111111 597.105778h28.444445v42.666666h-28.444445zM455.111111 511.772444h28.444445v42.666667h-28.444445zM512 696.661333h28.444444v42.666667h-28.444444zM512 597.105778h28.444444v42.666666h-28.444444zM512 511.772444h28.444444v42.666667h-28.444444zM568.888889 696.661333h28.444444v42.666667h-28.444444zM568.888889 597.105778h28.444444v42.666666h-28.444444zM625.777778 696.661333h28.444444v42.666667h-28.444444zM625.777778 597.105778h28.444444v42.666666h-28.444444zM682.666667 696.661333h28.444444v42.666667h-28.444444zM682.666667 597.105778h28.444444v42.666666h-28.444444z" fill="#275AA1" p-id="4038"></path></svg>