<svg height="360" legacy-metrics="false" node-id="1" sillyvg="true" template-height="1080" template-width="1080" version="1.1" viewBox="0 0 1080 1080" width="360" xmlns="http://www.w3.org/2000/svg" xmlns:xlink="http://www.w3.org/1999/xlink"><defs node-id="182"><linearGradient gradientUnits="objectBoundingBox" id="linearGradient-1" node-id="7" x1="0.5" x2="0.5" y1="0" y2="1"><stop offset="0" stop-color="#68b75c"></stop><stop offset="1" stop-color="#37802f"></stop></linearGradient></defs><g node-id="184"><path d="M 502.28 209.40 L 597.08 209.40 L 597.08 791.60 L 476.00 759.57 L 473.33 256.29 Z" fill="#e3e3eb" fill-rule="evenodd" group-id="1" id="Path-41" node-id="12" stroke-linecap="butt" stroke-width="1" target-height="582.19336" target-width="123.75" target-x="473.33008" target-y="209.40234"></path><path d="M 596.96 210.17 L 621.48 242.28 L 621.48 785.43 L 596.96 792.28 Z" fill="#cdced4" fill-rule="evenodd" group-id="1" id="Path-42" node-id="13" stroke-linecap="butt" stroke-width="1" target-height="582.1074" target-width="24.521484" target-x="596.9629" target-y="210.17188"></path><path d="M 484.00 261.00 L 499.00 261.00 L 499.00 282.00 L 484.00 282.00 L 484.00 261.00 Z M 513.00 261.00 L 528.00 261.00 L 528.00 282.00 L 513.00 282.00 L 513.00 261.00 Z M 542.00 261.00 L 557.00 261.00 L 557.00 282.00 L 542.00 282.00 L 542.00 261.00 Z M 571.00 261.00 L 586.00 261.00 L 586.00 282.00 L 571.00 282.00 L 571.00 261.00 Z M 484.00 293.00 L 499.00 293.00 L 499.00 314.00 L 484.00 314.00 L 484.00 293.00 Z M 513.00 293.00 L 528.00 293.00 L 528.00 314.00 L 513.00 314.00 L 513.00 293.00 Z M 542.00 293.00 L 557.00 293.00 L 557.00 314.00 L 542.00 314.00 L 542.00 293.00 Z M 571.00 293.00 L 586.00 293.00 L 586.00 314.00 L 571.00 314.00 L 571.00 293.00 Z M 484.00 328.00 L 499.00 328.00 L 499.00 349.00 L 484.00 349.00 L 484.00 328.00 Z M 513.00 328.00 L 528.00 328.00 L 528.00 349.00 L 513.00 349.00 L 513.00 328.00 Z M 542.00 328.00 L 557.00 328.00 L 557.00 349.00 L 542.00 349.00 L 542.00 328.00 Z M 571.00 328.00 L 586.00 328.00 L 586.00 349.00 L 571.00 349.00 L 571.00 328.00 Z M 484.00 360.00 L 499.00 360.00 L 499.00 381.00 L 484.00 381.00 L 484.00 360.00 Z M 513.00 360.00 L 528.00 360.00 L 528.00 381.00 L 513.00 381.00 L 513.00 360.00 Z M 542.00 360.00 L 557.00 360.00 L 557.00 381.00 L 542.00 381.00 L 542.00 360.00 Z M 571.00 360.00 L 586.00 360.00 L 586.00 381.00 L 571.00 381.00 L 571.00 360.00 Z M 484.00 395.00 L 499.00 395.00 L 499.00 416.00 L 484.00 416.00 L 484.00 395.00 Z M 513.00 395.00 L 528.00 395.00 L 528.00 416.00 L 513.00 416.00 L 513.00 395.00 Z M 542.00 395.00 L 557.00 395.00 L 557.00 416.00 L 542.00 416.00 L 542.00 395.00 Z M 571.00 395.00 L 586.00 395.00 L 586.00 416.00 L 571.00 416.00 L 571.00 395.00 Z M 484.00 428.00 L 499.00 428.00 L 499.00 449.00 L 484.00 449.00 L 484.00 428.00 Z M 513.00 428.00 L 528.00 428.00 L 528.00 449.00 L 513.00 449.00 L 513.00 428.00 Z M 542.00 428.00 L 557.00 428.00 L 557.00 449.00 L 542.00 449.00 L 542.00 428.00 Z M 571.00 428.00 L 586.00 428.00 L 586.00 449.00 L 571.00 449.00 L 571.00 428.00 Z M 484.00 460.00 L 499.00 460.00 L 499.00 481.00 L 484.00 481.00 L 484.00 460.00 Z M 513.00 460.00 L 528.00 460.00 L 528.00 481.00 L 513.00 481.00 L 513.00 460.00 Z M 542.00 460.00 L 557.00 460.00 L 557.00 481.00 L 542.00 481.00 L 542.00 460.00 Z M 571.00 460.00 L 586.00 460.00 L 586.00 481.00 L 571.00 481.00 L 571.00 460.00 Z M 484.00 495.00 L 499.00 495.00 L 499.00 516.00 L 484.00 516.00 L 484.00 495.00 Z M 513.00 495.00 L 528.00 495.00 L 528.00 516.00 L 513.00 516.00 L 513.00 495.00 Z M 542.00 495.00 L 557.00 495.00 L 557.00 516.00 L 542.00 516.00 L 542.00 495.00 Z M 571.00 495.00 L 586.00 495.00 L 586.00 516.00 L 571.00 516.00 L 571.00 495.00 Z M 484.00 528.00 L 499.00 528.00 L 499.00 549.00 L 484.00 549.00 L 484.00 528.00 Z M 513.00 528.00 L 528.00 528.00 L 528.00 549.00 L 513.00 549.00 L 513.00 528.00 Z M 542.00 528.00 L 557.00 528.00 L 557.00 549.00 L 542.00 549.00 L 542.00 528.00 Z M 571.00 528.00 L 586.00 528.00 L 586.00 549.00 L 571.00 549.00 L 571.00 528.00 Z M 484.00 562.00 L 499.00 562.00 L 499.00 583.00 L 484.00 583.00 L 484.00 562.00 Z M 513.00 562.00 L 528.00 562.00 L 528.00 583.00 L 513.00 583.00 L 513.00 562.00 Z M 542.00 562.00 L 557.00 562.00 L 557.00 583.00 L 542.00 583.00 L 542.00 562.00 Z M 571.00 562.00 L 586.00 562.00 L 586.00 583.00 L 571.00 583.00 L 571.00 562.00 Z M 484.00 596.00 L 499.00 596.00 L 499.00 617.00 L 484.00 617.00 L 484.00 596.00 Z M 513.00 596.00 L 528.00 596.00 L 528.00 617.00 L 513.00 617.00 L 513.00 596.00 Z M 542.00 596.00 L 557.00 596.00 L 557.00 617.00 L 542.00 617.00 L 542.00 596.00 Z M 571.00 596.00 L 586.00 596.00 L 586.00 617.00 L 571.00 617.00 L 571.00 596.00 Z M 484.00 631.00 L 499.00 631.00 L 499.00 652.00 L 484.00 652.00 L 484.00 631.00 Z M 513.00 631.00 L 528.00 631.00 L 528.00 652.00 L 513.00 652.00 L 513.00 631.00 Z M 542.00 631.00 L 557.00 631.00 L 557.00 652.00 L 542.00 652.00 L 542.00 631.00 Z M 571.00 631.00 L 586.00 631.00 L 586.00 652.00 L 571.00 652.00 L 571.00 631.00 Z M 484.00 663.00 L 499.00 663.00 L 499.00 684.00 L 484.00 684.00 L 484.00 663.00 Z M 513.00 663.00 L 528.00 663.00 L 528.00 684.00 L 513.00 684.00 L 513.00 663.00 Z M 542.00 663.00 L 557.00 663.00 L 557.00 684.00 L 542.00 684.00 L 542.00 663.00 Z M 571.00 663.00 L 586.00 663.00 L 586.00 684.00 L 571.00 684.00 L 571.00 663.00 Z M 484.00 694.00 L 499.00 694.00 L 499.00 715.00 L 484.00 715.00 L 484.00 694.00 Z M 513.00 694.00 L 528.00 694.00 L 528.00 715.00 L 513.00 715.00 L 513.00 694.00 Z M 542.00 694.00 L 557.00 694.00 L 557.00 715.00 L 542.00 715.00 L 542.00 694.00 Z M 571.00 694.00 L 586.00 694.00 L 586.00 715.00 L 571.00 715.00 L 571.00 694.00 Z M 542.00 724.00 L 557.00 724.00 L 557.00 745.00 L 542.00 745.00 L 542.00 724.00 Z M 571.00 724.00 L 586.00 724.00 L 586.00 745.00 L 571.00 745.00 L 571.00 724.00 Z M 542.00 760.00 L 557.00 760.00 L 557.00 781.00 L 542.00 781.00 L 542.00 760.00 Z M 571.00 760.00 L 586.00 760.00 L 586.00 781.00 L 571.00 781.00 L 571.00 760.00 Z" fill="#c9cce0" fill-rule="evenodd" group-id="1" id="Combined-Shape" node-id="14" stroke-linecap="butt" stroke-width="1" target-height="520" target-width="102" target-x="484" target-y="261"></path></g><g node-id="185"><path d="M 227.41 300.35 L 335.27 300.35 L 312.08 352.83 L 312.08 822.07 L 199.70 822.07 L 199.70 344.14 Z" fill="#dfdfec" fill-rule="evenodd" group-id="2" id="Path-38" node-id="16" stroke-linecap="butt" stroke-width="1" target-height="521.72266" target-width="135.57031" target-x="199.70313" target-y="300.34766"></path><path d="M 209.00 348.00 L 224.00 348.00 L 224.00 369.00 L 209.00 369.00 Z" fill="#c9cce0" fill-rule="evenodd" group-id="2" id="Rectangle" node-id="17" stroke-linecap="butt" stroke-width="1" target-height="21" target-width="15" target-x="209" target-y="348"></path><path d="M 238.00 348.00 L 253.00 348.00 L 253.00 369.00 L 238.00 369.00 Z" fill="#c9cce0" fill-rule="evenodd" group-id="2" id="Rectangle-Copy" node-id="18" stroke-linecap="butt" stroke-width="1" target-height="21" target-width="15" target-x="238" target-y="348"></path><path d="M 267.00 348.00 L 282.00 348.00 L 282.00 369.00 L 267.00 369.00 Z" fill="#c9cce0" fill-rule="evenodd" group-id="2" id="Rectangle-Copy-2" node-id="19" stroke-linecap="butt" stroke-width="1" target-height="21" target-width="15" target-x="267" target-y="348"></path><path d="M 296.00 348.00 L 311.00 348.00 L 311.00 369.00 L 296.00 369.00 Z" fill="#c9cce0" fill-rule="evenodd" group-id="2" id="Rectangle-Copy-3" node-id="20" stroke-linecap="butt" stroke-width="1" target-height="21" target-width="15" target-x="296" target-y="348"></path><path d="M 209.00 380.00 L 224.00 380.00 L 224.00 401.00 L 209.00 401.00 Z" fill="#c9cce0" fill-rule="evenodd" group-id="2" id="Rectangle-Copy-7" node-id="21" stroke-linecap="butt" stroke-width="1" target-height="21" target-width="15" target-x="209" target-y="380"></path><path d="M 238.00 380.00 L 253.00 380.00 L 253.00 401.00 L 238.00 401.00 Z" fill="#c9cce0" fill-rule="evenodd" group-id="2" id="Rectangle-Copy-6" node-id="22" stroke-linecap="butt" stroke-width="1" target-height="21" target-width="15" target-x="238" target-y="380"></path><path d="M 267.00 380.00 L 282.00 380.00 L 282.00 401.00 L 267.00 401.00 Z" fill="#c9cce0" fill-rule="evenodd" group-id="2" id="Rectangle-Copy-5" node-id="23" stroke-linecap="butt" stroke-width="1" target-height="21" target-width="15" target-x="267" target-y="380"></path><path d="M 296.00 380.00 L 311.00 380.00 L 311.00 401.00 L 296.00 401.00 Z" fill="#c9cce0" fill-rule="evenodd" group-id="2" id="Rectangle-Copy-4" node-id="24" stroke-linecap="butt" stroke-width="1" target-height="21" target-width="15" target-x="296" target-y="380"></path><path d="M 209.00 415.00 L 224.00 415.00 L 224.00 436.00 L 209.00 436.00 Z" fill="#c9cce0" fill-rule="evenodd" group-id="2" id="Rectangle-Copy-11" node-id="25" stroke-linecap="butt" stroke-width="1" target-height="21" target-width="15" target-x="209" target-y="415"></path><path d="M 238.00 415.00 L 253.00 415.00 L 253.00 436.00 L 238.00 436.00 Z" fill="#c9cce0" fill-rule="evenodd" group-id="2" id="Rectangle-Copy-10" node-id="26" stroke-linecap="butt" stroke-width="1" target-height="21" target-width="15" target-x="238" target-y="415"></path><path d="M 267.00 415.00 L 282.00 415.00 L 282.00 436.00 L 267.00 436.00 Z" fill="#c9cce0" fill-rule="evenodd" group-id="2" id="Rectangle-Copy-9" node-id="27" stroke-linecap="butt" stroke-width="1" target-height="21" target-width="15" target-x="267" target-y="415"></path><path d="M 296.00 415.00 L 311.00 415.00 L 311.00 436.00 L 296.00 436.00 Z" fill="#c9cce0" fill-rule="evenodd" group-id="2" id="Rectangle-Copy-8" node-id="28" stroke-linecap="butt" stroke-width="1" target-height="21" target-width="15" target-x="296" target-y="415"></path><path d="M 209.00 447.00 L 224.00 447.00 L 224.00 468.00 L 209.00 468.00 Z" fill="#c9cce0" fill-rule="evenodd" group-id="2" id="Rectangle-Copy-15" node-id="29" stroke-linecap="butt" stroke-width="1" target-height="21" target-width="15" target-x="209" target-y="447"></path><path d="M 238.00 447.00 L 253.00 447.00 L 253.00 468.00 L 238.00 468.00 Z" fill="#c9cce0" fill-rule="evenodd" group-id="2" id="Rectangle-Copy-14" node-id="30" stroke-linecap="butt" stroke-width="1" target-height="21" target-width="15" target-x="238" target-y="447"></path><path d="M 267.00 447.00 L 282.00 447.00 L 282.00 468.00 L 267.00 468.00 Z" fill="#c9cce0" fill-rule="evenodd" group-id="2" id="Rectangle-Copy-13" node-id="31" stroke-linecap="butt" stroke-width="1" target-height="21" target-width="15" target-x="267" target-y="447"></path><path d="M 296.00 447.00 L 311.00 447.00 L 311.00 468.00 L 296.00 468.00 Z" fill="#c9cce0" fill-rule="evenodd" group-id="2" id="Rectangle-Copy-12" node-id="32" stroke-linecap="butt" stroke-width="1" target-height="21" target-width="15" target-x="296" target-y="447"></path><path d="M 209.00 482.00 L 224.00 482.00 L 224.00 503.00 L 209.00 503.00 Z" fill="#c9cce0" fill-rule="evenodd" group-id="2" id="Rectangle-Copy-19" node-id="33" stroke-linecap="butt" stroke-width="1" target-height="21" target-width="15" target-x="209" target-y="482"></path><path d="M 238.00 482.00 L 253.00 482.00 L 253.00 503.00 L 238.00 503.00 Z" fill="#c9cce0" fill-rule="evenodd" group-id="2" id="Rectangle-Copy-18" node-id="34" stroke-linecap="butt" stroke-width="1" target-height="21" target-width="15" target-x="238" target-y="482"></path><path d="M 267.00 482.00 L 282.00 482.00 L 282.00 503.00 L 267.00 503.00 Z" fill="#c9cce0" fill-rule="evenodd" group-id="2" id="Rectangle-Copy-17" node-id="35" stroke-linecap="butt" stroke-width="1" target-height="21" target-width="15" target-x="267" target-y="482"></path><path d="M 296.00 482.00 L 311.00 482.00 L 311.00 503.00 L 296.00 503.00 Z" fill="#c9cce0" fill-rule="evenodd" group-id="2" id="Rectangle-Copy-16" node-id="36" stroke-linecap="butt" stroke-width="1" target-height="21" target-width="15" target-x="296" target-y="482"></path><path d="M 209.00 515.00 L 224.00 515.00 L 224.00 536.00 L 209.00 536.00 Z" fill="#c9cce0" fill-rule="evenodd" group-id="2" id="Rectangle-Copy-23" node-id="37" stroke-linecap="butt" stroke-width="1" target-height="21" target-width="15" target-x="209" target-y="515"></path><path d="M 238.00 515.00 L 253.00 515.00 L 253.00 536.00 L 238.00 536.00 Z" fill="#c9cce0" fill-rule="evenodd" group-id="2" id="Rectangle-Copy-22" node-id="38" stroke-linecap="butt" stroke-width="1" target-height="21" target-width="15" target-x="238" target-y="515"></path><path d="M 267.00 515.00 L 282.00 515.00 L 282.00 536.00 L 267.00 536.00 Z" fill="#c9cce0" fill-rule="evenodd" group-id="2" id="Rectangle-Copy-21" node-id="39" stroke-linecap="butt" stroke-width="1" target-height="21" target-width="15" target-x="267" target-y="515"></path><path d="M 296.00 515.00 L 311.00 515.00 L 311.00 536.00 L 296.00 536.00 Z" fill="#c9cce0" fill-rule="evenodd" group-id="2" id="Rectangle-Copy-20" node-id="40" stroke-linecap="butt" stroke-width="1" target-height="21" target-width="15" target-x="296" target-y="515"></path><path d="M 209.00 547.00 L 224.00 547.00 L 224.00 568.00 L 209.00 568.00 Z" fill="#c9cce0" fill-rule="evenodd" group-id="2" id="Rectangle-Copy-27" node-id="41" stroke-linecap="butt" stroke-width="1" target-height="21" target-width="15" target-x="209" target-y="547"></path><path d="M 238.00 547.00 L 253.00 547.00 L 253.00 568.00 L 238.00 568.00 Z" fill="#c9cce0" fill-rule="evenodd" group-id="2" id="Rectangle-Copy-26" node-id="42" stroke-linecap="butt" stroke-width="1" target-height="21" target-width="15" target-x="238" target-y="547"></path><path d="M 267.00 547.00 L 282.00 547.00 L 282.00 568.00 L 267.00 568.00 Z" fill="#c9cce0" fill-rule="evenodd" group-id="2" id="Rectangle-Copy-25" node-id="43" stroke-linecap="butt" stroke-width="1" target-height="21" target-width="15" target-x="267" target-y="547"></path><path d="M 296.00 547.00 L 311.00 547.00 L 311.00 568.00 L 296.00 568.00 Z" fill="#c9cce0" fill-rule="evenodd" group-id="2" id="Rectangle-Copy-24" node-id="44" stroke-linecap="butt" stroke-width="1" target-height="21" target-width="15" target-x="296" target-y="547"></path><path d="M 209.00 582.00 L 224.00 582.00 L 224.00 603.00 L 209.00 603.00 Z" fill="#c9cce0" fill-rule="evenodd" group-id="2" id="Rectangle-Copy-31" node-id="45" stroke-linecap="butt" stroke-width="1" target-height="21" target-width="15" target-x="209" target-y="582"></path><path d="M 238.00 582.00 L 253.00 582.00 L 253.00 603.00 L 238.00 603.00 Z" fill="#c9cce0" fill-rule="evenodd" group-id="2" id="Rectangle-Copy-30" node-id="46" stroke-linecap="butt" stroke-width="1" target-height="21" target-width="15" target-x="238" target-y="582"></path><path d="M 267.00 582.00 L 282.00 582.00 L 282.00 603.00 L 267.00 603.00 Z" fill="#c9cce0" fill-rule="evenodd" group-id="2" id="Rectangle-Copy-29" node-id="47" stroke-linecap="butt" stroke-width="1" target-height="21" target-width="15" target-x="267" target-y="582"></path><path d="M 296.00 582.00 L 311.00 582.00 L 311.00 603.00 L 296.00 603.00 Z" fill="#c9cce0" fill-rule="evenodd" group-id="2" id="Rectangle-Copy-28" node-id="48" stroke-linecap="butt" stroke-width="1" target-height="21" target-width="15" target-x="296" target-y="582"></path><path d="M 209.00 615.00 L 224.00 615.00 L 224.00 636.00 L 209.00 636.00 Z" fill="#c9cce0" fill-rule="evenodd" group-id="2" id="Rectangle-Copy-35" node-id="49" stroke-linecap="butt" stroke-width="1" target-height="21" target-width="15" target-x="209" target-y="615"></path><path d="M 238.00 615.00 L 253.00 615.00 L 253.00 636.00 L 238.00 636.00 Z" fill="#c9cce0" fill-rule="evenodd" group-id="2" id="Rectangle-Copy-34" node-id="50" stroke-linecap="butt" stroke-width="1" target-height="21" target-width="15" target-x="238" target-y="615"></path><path d="M 267.00 615.00 L 282.00 615.00 L 282.00 636.00 L 267.00 636.00 Z" fill="#c9cce0" fill-rule="evenodd" group-id="2" id="Rectangle-Copy-33" node-id="51" stroke-linecap="butt" stroke-width="1" target-height="21" target-width="15" target-x="267" target-y="615"></path><path d="M 296.00 615.00 L 311.00 615.00 L 311.00 636.00 L 296.00 636.00 Z" fill="#c9cce0" fill-rule="evenodd" group-id="2" id="Rectangle-Copy-32" node-id="52" stroke-linecap="butt" stroke-width="1" target-height="21" target-width="15" target-x="296" target-y="615"></path><path d="M 209.00 649.00 L 224.00 649.00 L 224.00 670.00 L 209.00 670.00 Z" fill="#c9cce0" fill-rule="evenodd" group-id="2" id="Rectangle-Copy-39" node-id="53" stroke-linecap="butt" stroke-width="1" target-height="21" target-width="15" target-x="209" target-y="649"></path><path d="M 238.00 649.00 L 253.00 649.00 L 253.00 670.00 L 238.00 670.00 Z" fill="#c9cce0" fill-rule="evenodd" group-id="2" id="Rectangle-Copy-38" node-id="54" stroke-linecap="butt" stroke-width="1" target-height="21" target-width="15" target-x="238" target-y="649"></path><path d="M 267.00 649.00 L 282.00 649.00 L 282.00 670.00 L 267.00 670.00 Z" fill="#c9cce0" fill-rule="evenodd" group-id="2" id="Rectangle-Copy-37" node-id="55" stroke-linecap="butt" stroke-width="1" target-height="21" target-width="15" target-x="267" target-y="649"></path><path d="M 296.00 649.00 L 311.00 649.00 L 311.00 670.00 L 296.00 670.00 Z" fill="#c9cce0" fill-rule="evenodd" group-id="2" id="Rectangle-Copy-36" node-id="56" stroke-linecap="butt" stroke-width="1" target-height="21" target-width="15" target-x="296" target-y="649"></path><path d="M 209.00 683.00 L 224.00 683.00 L 224.00 704.00 L 209.00 704.00 Z" fill="#c9cce0" fill-rule="evenodd" group-id="2" id="Rectangle-Copy-43" node-id="57" stroke-linecap="butt" stroke-width="1" target-height="21" target-width="15" target-x="209" target-y="683"></path><path d="M 238.00 683.00 L 253.00 683.00 L 253.00 704.00 L 238.00 704.00 Z" fill="#c9cce0" fill-rule="evenodd" group-id="2" id="Rectangle-Copy-42" node-id="58" stroke-linecap="butt" stroke-width="1" target-height="21" target-width="15" target-x="238" target-y="683"></path><path d="M 267.00 683.00 L 282.00 683.00 L 282.00 704.00 L 267.00 704.00 Z" fill="#c9cce0" fill-rule="evenodd" group-id="2" id="Rectangle-Copy-41" node-id="59" stroke-linecap="butt" stroke-width="1" target-height="21" target-width="15" target-x="267" target-y="683"></path><path d="M 296.00 683.00 L 311.00 683.00 L 311.00 704.00 L 296.00 704.00 Z" fill="#c9cce0" fill-rule="evenodd" group-id="2" id="Rectangle-Copy-40" node-id="60" stroke-linecap="butt" stroke-width="1" target-height="21" target-width="15" target-x="296" target-y="683"></path><path d="M 209.00 718.00 L 224.00 718.00 L 224.00 739.00 L 209.00 739.00 Z" fill="#c9cce0" fill-rule="evenodd" group-id="2" id="Rectangle-Copy-47" node-id="61" stroke-linecap="butt" stroke-width="1" target-height="21" target-width="15" target-x="209" target-y="718"></path><path d="M 238.00 718.00 L 253.00 718.00 L 253.00 739.00 L 238.00 739.00 Z" fill="#c9cce0" fill-rule="evenodd" group-id="2" id="Rectangle-Copy-46" node-id="62" stroke-linecap="butt" stroke-width="1" target-height="21" target-width="15" target-x="238" target-y="718"></path><path d="M 267.00 718.00 L 282.00 718.00 L 282.00 739.00 L 267.00 739.00 Z" fill="#c9cce0" fill-rule="evenodd" group-id="2" id="Rectangle-Copy-45" node-id="63" stroke-linecap="butt" stroke-width="1" target-height="21" target-width="15" target-x="267" target-y="718"></path><path d="M 296.00 718.00 L 311.00 718.00 L 311.00 739.00 L 296.00 739.00 Z" fill="#c9cce0" fill-rule="evenodd" group-id="2" id="Rectangle-Copy-44" node-id="64" stroke-linecap="butt" stroke-width="1" target-height="21" target-width="15" target-x="296" target-y="718"></path><path d="M 209.00 750.00 L 224.00 750.00 L 224.00 771.00 L 209.00 771.00 Z" fill="#c9cce0" fill-rule="evenodd" group-id="2" id="Rectangle-Copy-51" node-id="65" stroke-linecap="butt" stroke-width="1" target-height="21" target-width="15" target-x="209" target-y="750"></path><path d="M 238.00 750.00 L 253.00 750.00 L 253.00 771.00 L 238.00 771.00 Z" fill="#c9cce0" fill-rule="evenodd" group-id="2" id="Rectangle-Copy-50" node-id="66" stroke-linecap="butt" stroke-width="1" target-height="21" target-width="15" target-x="238" target-y="750"></path><path d="M 267.00 750.00 L 282.00 750.00 L 282.00 771.00 L 267.00 771.00 Z" fill="#c9cce0" fill-rule="evenodd" group-id="2" id="Rectangle-Copy-49" node-id="67" stroke-linecap="butt" stroke-width="1" target-height="21" target-width="15" target-x="267" target-y="750"></path><path d="M 296.00 750.00 L 311.00 750.00 L 311.00 771.00 L 296.00 771.00 Z" fill="#c9cce0" fill-rule="evenodd" group-id="2" id="Rectangle-Copy-48" node-id="68" stroke-linecap="butt" stroke-width="1" target-height="21" target-width="15" target-x="296" target-y="750"></path><path d="M 209.00 781.00 L 224.00 781.00 L 224.00 802.00 L 209.00 802.00 Z" fill="#c9cce0" fill-rule="evenodd" group-id="2" id="Rectangle-Copy-55" node-id="69" stroke-linecap="butt" stroke-width="1" target-height="21" target-width="15" target-x="209" target-y="781"></path><path d="M 238.00 781.00 L 253.00 781.00 L 253.00 802.00 L 238.00 802.00 Z" fill="#c9cce0" fill-rule="evenodd" group-id="2" id="Rectangle-Copy-54" node-id="70" stroke-linecap="butt" stroke-width="1" target-height="21" target-width="15" target-x="238" target-y="781"></path><path d="M 267.00 781.00 L 282.00 781.00 L 282.00 802.00 L 267.00 802.00 Z" fill="#c9cce0" fill-rule="evenodd" group-id="2" id="Rectangle-Copy-53" node-id="71" stroke-linecap="butt" stroke-width="1" target-height="21" target-width="15" target-x="267" target-y="781"></path><path d="M 296.00 781.00 L 311.00 781.00 L 311.00 802.00 L 296.00 802.00 Z" fill="#c9cce0" fill-rule="evenodd" group-id="2" id="Rectangle-Copy-52" node-id="72" stroke-linecap="butt" stroke-width="1" target-height="21" target-width="15" target-x="296" target-y="781"></path></g><g node-id="186"><path d="M 771.29 294.33 L 743.14 334.89 L 743.14 767.09 L 771.29 802.30 Z" fill="#cdced4" fill-rule="evenodd" group-id="3" id="Path-39" node-id="74" stroke-linecap="butt" stroke-width="1" target-height="507.96484" target-width="28.140625" target-x="743.14453" target-y="294.33203"></path><path d="M 769.79 293.11 L 858.60 293.11 L 886.71 337.03 L 886.71 868.95 L 770.34 802.96 Z" fill="#e3e3eb" fill-rule="evenodd" group-id="3" id="Path-40" node-id="75" stroke-linecap="butt" stroke-width="1" target-height="575.83203" target-width="116.91992" target-x="769.79297" target-y="293.11328"></path><path d="M 777.00 340.00 L 792.00 340.00 L 792.00 361.00 L 777.00 361.00 L 777.00 340.00 Z M 806.00 340.00 L 821.00 340.00 L 821.00 361.00 L 806.00 361.00 L 806.00 340.00 Z M 835.00 340.00 L 850.00 340.00 L 850.00 361.00 L 835.00 361.00 L 835.00 340.00 Z M 864.00 340.00 L 879.00 340.00 L 879.00 361.00 L 864.00 361.00 L 864.00 340.00 Z M 777.00 372.00 L 792.00 372.00 L 792.00 393.00 L 777.00 393.00 L 777.00 372.00 Z M 806.00 372.00 L 821.00 372.00 L 821.00 393.00 L 806.00 393.00 L 806.00 372.00 Z M 835.00 372.00 L 850.00 372.00 L 850.00 393.00 L 835.00 393.00 L 835.00 372.00 Z M 864.00 372.00 L 879.00 372.00 L 879.00 393.00 L 864.00 393.00 L 864.00 372.00 Z M 777.00 407.00 L 792.00 407.00 L 792.00 428.00 L 777.00 428.00 L 777.00 407.00 Z M 806.00 407.00 L 821.00 407.00 L 821.00 428.00 L 806.00 428.00 L 806.00 407.00 Z M 835.00 407.00 L 850.00 407.00 L 850.00 428.00 L 835.00 428.00 L 835.00 407.00 Z M 864.00 407.00 L 879.00 407.00 L 879.00 428.00 L 864.00 428.00 L 864.00 407.00 Z M 777.00 439.00 L 792.00 439.00 L 792.00 460.00 L 777.00 460.00 L 777.00 439.00 Z M 806.00 439.00 L 821.00 439.00 L 821.00 460.00 L 806.00 460.00 L 806.00 439.00 Z M 835.00 439.00 L 850.00 439.00 L 850.00 460.00 L 835.00 460.00 L 835.00 439.00 Z M 864.00 439.00 L 879.00 439.00 L 879.00 460.00 L 864.00 460.00 L 864.00 439.00 Z M 777.00 474.00 L 792.00 474.00 L 792.00 495.00 L 777.00 495.00 L 777.00 474.00 Z M 806.00 474.00 L 821.00 474.00 L 821.00 495.00 L 806.00 495.00 L 806.00 474.00 Z M 835.00 474.00 L 850.00 474.00 L 850.00 495.00 L 835.00 495.00 L 835.00 474.00 Z M 864.00 474.00 L 879.00 474.00 L 879.00 495.00 L 864.00 495.00 L 864.00 474.00 Z M 777.00 507.00 L 792.00 507.00 L 792.00 528.00 L 777.00 528.00 L 777.00 507.00 Z M 806.00 507.00 L 821.00 507.00 L 821.00 528.00 L 806.00 528.00 L 806.00 507.00 Z M 835.00 507.00 L 850.00 507.00 L 850.00 528.00 L 835.00 528.00 L 835.00 507.00 Z M 864.00 507.00 L 879.00 507.00 L 879.00 528.00 L 864.00 528.00 L 864.00 507.00 Z M 777.00 539.00 L 792.00 539.00 L 792.00 560.00 L 777.00 560.00 L 777.00 539.00 Z M 806.00 539.00 L 821.00 539.00 L 821.00 560.00 L 806.00 560.00 L 806.00 539.00 Z M 835.00 539.00 L 850.00 539.00 L 850.00 560.00 L 835.00 560.00 L 835.00 539.00 Z M 864.00 539.00 L 879.00 539.00 L 879.00 560.00 L 864.00 560.00 L 864.00 539.00 Z M 777.00 574.00 L 792.00 574.00 L 792.00 595.00 L 777.00 595.00 L 777.00 574.00 Z M 806.00 574.00 L 821.00 574.00 L 821.00 595.00 L 806.00 595.00 L 806.00 574.00 Z M 835.00 574.00 L 850.00 574.00 L 850.00 595.00 L 835.00 595.00 L 835.00 574.00 Z M 864.00 574.00 L 879.00 574.00 L 879.00 595.00 L 864.00 595.00 L 864.00 574.00 Z M 777.00 607.00 L 792.00 607.00 L 792.00 628.00 L 777.00 628.00 L 777.00 607.00 Z M 806.00 607.00 L 821.00 607.00 L 821.00 628.00 L 806.00 628.00 L 806.00 607.00 Z M 835.00 607.00 L 850.00 607.00 L 850.00 628.00 L 835.00 628.00 L 835.00 607.00 Z M 864.00 607.00 L 879.00 607.00 L 879.00 628.00 L 864.00 628.00 L 864.00 607.00 Z M 777.00 641.00 L 792.00 641.00 L 792.00 662.00 L 777.00 662.00 L 777.00 641.00 Z M 806.00 641.00 L 821.00 641.00 L 821.00 662.00 L 806.00 662.00 L 806.00 641.00 Z M 835.00 641.00 L 850.00 641.00 L 850.00 662.00 L 835.00 662.00 L 835.00 641.00 Z M 864.00 641.00 L 879.00 641.00 L 879.00 662.00 L 864.00 662.00 L 864.00 641.00 Z M 777.00 675.00 L 792.00 675.00 L 792.00 696.00 L 777.00 696.00 L 777.00 675.00 Z M 806.00 675.00 L 821.00 675.00 L 821.00 696.00 L 806.00 696.00 L 806.00 675.00 Z M 835.00 675.00 L 850.00 675.00 L 850.00 696.00 L 835.00 696.00 L 835.00 675.00 Z M 864.00 675.00 L 879.00 675.00 L 879.00 696.00 L 864.00 696.00 L 864.00 675.00 Z M 777.00 710.00 L 792.00 710.00 L 792.00 731.00 L 777.00 731.00 L 777.00 710.00 Z M 806.00 710.00 L 821.00 710.00 L 821.00 731.00 L 806.00 731.00 L 806.00 710.00 Z M 835.00 710.00 L 850.00 710.00 L 850.00 731.00 L 835.00 731.00 L 835.00 710.00 Z M 864.00 710.00 L 879.00 710.00 L 879.00 731.00 L 864.00 731.00 L 864.00 710.00 Z M 777.00 742.00 L 792.00 742.00 L 792.00 763.00 L 777.00 763.00 L 777.00 742.00 Z M 806.00 742.00 L 821.00 742.00 L 821.00 763.00 L 806.00 763.00 L 806.00 742.00 Z M 835.00 742.00 L 850.00 742.00 L 850.00 763.00 L 835.00 763.00 L 835.00 742.00 Z M 864.00 742.00 L 879.00 742.00 L 879.00 763.00 L 864.00 763.00 L 864.00 742.00 Z M 777.00 773.00 L 792.00 773.00 L 792.00 794.00 L 777.00 794.00 L 777.00 773.00 Z M 806.00 773.00 L 821.00 773.00 L 821.00 794.00 L 806.00 794.00 L 806.00 773.00 Z M 835.00 773.00 L 850.00 773.00 L 850.00 794.00 L 835.00 794.00 L 835.00 773.00 Z M 864.00 773.00 L 879.00 773.00 L 879.00 794.00 L 864.00 794.00 L 864.00 773.00 Z" fill="#c9cce0" fill-rule="evenodd" group-id="3" id="Combined-Shape" node-id="76" stroke-linecap="butt" stroke-width="1" target-height="454" target-width="102" target-x="777" target-y="340"></path></g><g node-id="187"><path d="M 348.00 142.00 L 435.00 142.00 L 435.00 191.00 L 348.00 191.00 Z" fill="#9dc3d8" fill-rule="evenodd" group-id="4" id="Rectangle-24" node-id="78" stroke-linecap="butt" stroke-width="1" target-height="49" target-width="87" target-x="348" target-y="142"></path><path d="M 337.00 190.00 L 446.00 190.00 L 446.00 232.00 L 337.00 232.00 Z" fill="#5b92b7" fill-rule="evenodd" group-id="4" id="Rectangle-24-Copy" node-id="79" stroke-linecap="butt" stroke-width="1" target-height="42" target-width="109" target-x="337" target-y="190"></path><path d="M 316.00 232.00 L 468.00 232.00 L 468.00 274.00 L 316.00 274.00 Z" fill="#7fb4d7" fill-rule="evenodd" group-id="4" id="Rectangle-24-Copy-2" node-id="80" stroke-linecap="butt" stroke-width="1" target-height="42" target-width="152" target-x="316" target-y="232"></path><path d="M 316.00 247.00 L 468.00 247.00 L 468.00 251.00 L 316.00 251.00 Z" fill="#4d95c9" fill-rule="evenodd" group-id="4" id="Rectangle-24-Copy-5" node-id="81" stroke-linecap="butt" stroke-width="1" target-height="4" target-width="152" target-x="316" target-y="247"></path><path d="M 316.00 258.00 L 468.00 258.00 L 468.00 262.00 L 316.00 262.00 Z" fill="#4d95c9" fill-rule="evenodd" group-id="4" id="Rectangle-24-Copy-6" node-id="82" stroke-linecap="butt" stroke-width="1" target-height="4" target-width="152" target-x="316" target-y="258"></path><path d="M 316.00 274.00 L 468.00 274.00 L 468.00 331.00 L 316.00 331.00 Z" fill="#6faacf" fill-rule="evenodd" group-id="4" id="Rectangle-24-Copy-3" node-id="83" stroke-linecap="butt" stroke-width="1" target-height="57" target-width="152" target-x="316" target-y="274"></path><path d="M 316.00 283.00 L 468.00 283.00 L 468.00 287.00 L 316.00 287.00 Z" fill="#4d95c9" fill-rule="evenodd" group-id="4" id="Rectangle-24-Copy-8" node-id="84" stroke-linecap="butt" stroke-width="1" target-height="4" target-width="152" target-x="316" target-y="283"></path><path d="M 316.00 294.00 L 468.00 294.00 L 468.00 298.00 L 316.00 298.00 Z" fill="#4d95c9" fill-rule="evenodd" group-id="4" id="Rectangle-24-Copy-7" node-id="85" stroke-linecap="butt" stroke-width="1" target-height="4" target-width="152" target-x="316" target-y="294"></path><path d="M 316.00 305.00 L 468.00 305.00 L 468.00 309.00 L 316.00 309.00 Z" fill="#4d95c9" fill-rule="evenodd" group-id="4" id="Rectangle-24-Copy-10" node-id="86" stroke-linecap="butt" stroke-width="1" target-height="4" target-width="152" target-x="316" target-y="305"></path><path d="M 316.00 316.00 L 468.00 316.00 L 468.00 320.00 L 316.00 320.00 Z" fill="#4d95c9" fill-rule="evenodd" group-id="4" id="Rectangle-24-Copy-9" node-id="87" stroke-linecap="butt" stroke-width="1" target-height="4" target-width="152" target-x="316" target-y="316"></path><path d="M 310.00 331.00 L 471.00 331.00 L 471.00 789.00 L 310.00 789.00 Z" fill="#659fc7" fill-rule="evenodd" group-id="4" id="Rectangle-24-Copy-4" node-id="88" stroke-linecap="butt" stroke-width="1" target-height="458" target-width="161" target-x="310" target-y="331"></path><path d="M 310.00 343.00 L 471.00 343.00 L 471.00 349.00 L 310.00 349.00 Z" fill="#4d95c9" fill-rule="evenodd" group-id="4" id="Rectangle-24-Copy-11" node-id="89" stroke-linecap="butt" stroke-width="1" target-height="6" target-width="161" target-x="310" target-y="343"></path><path d="M 310.00 358.63 L 471.00 358.63 L 471.00 364.63 L 310.00 364.63 Z" fill="#4d95c9" fill-rule="evenodd" group-id="4" id="Rectangle-24-Copy-12" node-id="90" stroke-linecap="butt" stroke-width="1" target-height="6" target-width="161" target-x="310" target-y="358.62964"></path><path d="M 310.00 374.26 L 471.00 374.26 L 471.00 380.26 L 310.00 380.26 Z" fill="#4d95c9" fill-rule="evenodd" group-id="4" id="Rectangle-24-Copy-13" node-id="91" stroke-linecap="butt" stroke-width="1" target-height="6" target-width="161" target-x="310" target-y="374.25928"></path><path d="M 310.00 389.89 L 471.00 389.89 L 471.00 395.89 L 310.00 395.89 Z" fill="#4d95c9" fill-rule="evenodd" group-id="4" id="Rectangle-24-Copy-14" node-id="92" stroke-linecap="butt" stroke-width="1" target-height="6" target-width="161" target-x="310" target-y="389.8889"></path><path d="M 310.00 405.52 L 471.00 405.52 L 471.00 411.52 L 310.00 411.52 Z" fill="#4d95c9" fill-rule="evenodd" group-id="4" id="Rectangle-24-Copy-15" node-id="93" stroke-linecap="butt" stroke-width="1" target-height="6" target-width="161" target-x="310" target-y="405.51852"></path><path d="M 310.00 421.15 L 471.00 421.15 L 471.00 427.15 L 310.00 427.15 Z" fill="#4d95c9" fill-rule="evenodd" group-id="4" id="Rectangle-24-Copy-16" node-id="94" stroke-linecap="butt" stroke-width="1" target-height="6" target-width="161" target-x="310" target-y="421.14816"></path><path d="M 310.00 436.78 L 471.00 436.78 L 471.00 442.78 L 310.00 442.78 Z" fill="#4d95c9" fill-rule="evenodd" group-id="4" id="Rectangle-24-Copy-17" node-id="95" stroke-linecap="butt" stroke-width="1" target-height="6" target-width="161" target-x="310" target-y="436.77777"></path><path d="M 310.00 452.41 L 471.00 452.41 L 471.00 458.41 L 310.00 458.41 Z" fill="#4d95c9" fill-rule="evenodd" group-id="4" id="Rectangle-24-Copy-18" node-id="96" stroke-linecap="butt" stroke-width="1" target-height="6" target-width="161" target-x="310" target-y="452.4074"></path><path d="M 310.00 468.04 L 471.00 468.04 L 471.00 474.04 L 310.00 474.04 Z" fill="#4d95c9" fill-rule="evenodd" group-id="4" id="Rectangle-24-Copy-19" node-id="97" stroke-linecap="butt" stroke-width="1" target-height="6" target-width="161" target-x="310" target-y="468.03705"></path><path d="M 310.00 483.67 L 471.00 483.67 L 471.00 489.67 L 310.00 489.67 Z" fill="#4d95c9" fill-rule="evenodd" group-id="4" id="Rectangle-24-Copy-20" node-id="98" stroke-linecap="butt" stroke-width="1" target-height="6" target-width="161" target-x="310" target-y="483.66666"></path><path d="M 310.00 499.30 L 471.00 499.30 L 471.00 505.30 L 310.00 505.30 Z" fill="#4d95c9" fill-rule="evenodd" group-id="4" id="Rectangle-24-Copy-21" node-id="99" stroke-linecap="butt" stroke-width="1" target-height="6" target-width="161" target-x="310" target-y="499.2963"></path><path d="M 310.00 514.93 L 471.00 514.93 L 471.00 520.93 L 310.00 520.93 Z" fill="#4d95c9" fill-rule="evenodd" group-id="4" id="Rectangle-24-Copy-22" node-id="100" stroke-linecap="butt" stroke-width="1" target-height="6" target-width="161" target-x="310" target-y="514.9259"></path><path d="M 310.00 530.56 L 471.00 530.56 L 471.00 536.56 L 310.00 536.56 Z" fill="#4d95c9" fill-rule="evenodd" group-id="4" id="Rectangle-24-Copy-23" node-id="101" stroke-linecap="butt" stroke-width="1" target-height="6" target-width="161" target-x="310" target-y="530.55554"></path><path d="M 310.00 546.19 L 471.00 546.19 L 471.00 552.19 L 310.00 552.19 Z" fill="#4d95c9" fill-rule="evenodd" group-id="4" id="Rectangle-24-Copy-34" node-id="102" stroke-linecap="butt" stroke-width="1" target-height="6" target-width="161" target-x="310" target-y="546.1852"></path><path d="M 310.00 561.81 L 471.00 561.81 L 471.00 567.81 L 310.00 567.81 Z" fill="#4d95c9" fill-rule="evenodd" group-id="4" id="Rectangle-24-Copy-33" node-id="103" stroke-linecap="butt" stroke-width="1" target-height="6" target-width="161" target-x="310" target-y="561.8148"></path><path d="M 310.00 577.44 L 471.00 577.44 L 471.00 583.44 L 310.00 583.44 Z" fill="#4d95c9" fill-rule="evenodd" group-id="4" id="Rectangle-24-Copy-32" node-id="104" stroke-linecap="butt" stroke-width="1" target-height="6" target-width="161" target-x="310" target-y="577.44446"></path><path d="M 310.00 593.07 L 471.00 593.07 L 471.00 599.07 L 310.00 599.07 Z" fill="#4d95c9" fill-rule="evenodd" group-id="4" id="Rectangle-24-Copy-31" node-id="105" stroke-linecap="butt" stroke-width="1" target-height="6" target-width="161" target-x="310" target-y="593.0741"></path><path d="M 310.00 608.70 L 471.00 608.70 L 471.00 614.70 L 310.00 614.70 Z" fill="#4d95c9" fill-rule="evenodd" group-id="4" id="Rectangle-24-Copy-30" node-id="106" stroke-linecap="butt" stroke-width="1" target-height="6" target-width="161" target-x="310" target-y="608.70374"></path><path d="M 310.00 624.33 L 471.00 624.33 L 471.00 630.33 L 310.00 630.33 Z" fill="#4d95c9" fill-rule="evenodd" group-id="4" id="Rectangle-24-Copy-29" node-id="107" stroke-linecap="butt" stroke-width="1" target-height="6" target-width="161" target-x="310" target-y="624.3334"></path><path d="M 310.00 639.96 L 471.00 639.96 L 471.00 645.96 L 310.00 645.96 Z" fill="#4d95c9" fill-rule="evenodd" group-id="4" id="Rectangle-24-Copy-28" node-id="108" stroke-linecap="butt" stroke-width="1" target-height="6" target-width="161" target-x="310" target-y="639.96295"></path><path d="M 310.00 655.59 L 471.00 655.59 L 471.00 661.59 L 310.00 661.59 Z" fill="#4d95c9" fill-rule="evenodd" group-id="4" id="Rectangle-24-Copy-27" node-id="109" stroke-linecap="butt" stroke-width="1" target-height="6" target-width="161" target-x="310" target-y="655.5926"></path><path d="M 310.00 671.22 L 471.00 671.22 L 471.00 677.22 L 310.00 677.22 Z" fill="#4d95c9" fill-rule="evenodd" group-id="4" id="Rectangle-24-Copy-26" node-id="110" stroke-linecap="butt" stroke-width="1" target-height="6" target-width="161" target-x="310" target-y="671.2222"></path><path d="M 310.00 686.85 L 471.00 686.85 L 471.00 692.85 L 310.00 692.85 Z" fill="#4d95c9" fill-rule="evenodd" group-id="4" id="Rectangle-24-Copy-25" node-id="111" stroke-linecap="butt" stroke-width="1" target-height="6" target-width="161" target-x="310" target-y="686.85187"></path><path d="M 310.00 702.48 L 471.00 702.48 L 471.00 708.48 L 310.00 708.48 Z" fill="#4d95c9" fill-rule="evenodd" group-id="4" id="Rectangle-24-Copy-24" node-id="112" stroke-linecap="butt" stroke-width="1" target-height="6" target-width="161" target-x="310" target-y="702.4815"></path><path d="M 310.00 718.11 L 471.00 718.11 L 471.00 724.11 L 310.00 724.11 Z" fill="#4d95c9" fill-rule="evenodd" group-id="4" id="Rectangle-24-Copy-38" node-id="113" stroke-linecap="butt" stroke-width="1" target-height="6" target-width="161" target-x="310" target-y="718.1111"></path><path d="M 310.00 733.74 L 471.00 733.74 L 471.00 739.74 L 310.00 739.74 Z" fill="#4d95c9" fill-rule="evenodd" group-id="4" id="Rectangle-24-Copy-37" node-id="114" stroke-linecap="butt" stroke-width="1" target-height="6" target-width="161" target-x="310" target-y="733.7407"></path><path d="M 310.00 749.37 L 471.00 749.37 L 471.00 755.37 L 310.00 755.37 Z" fill="#4d95c9" fill-rule="evenodd" group-id="4" id="Rectangle-24-Copy-36" node-id="115" stroke-linecap="butt" stroke-width="1" target-height="6" target-width="161" target-x="310" target-y="749.37036"></path><path d="M 310.00 765.00 L 471.00 765.00 L 471.00 771.00 L 310.00 771.00 Z" fill="#4d95c9" fill-rule="evenodd" group-id="4" id="Rectangle-24-Copy-35" node-id="116" stroke-linecap="butt" stroke-width="1" target-height="6" target-width="161" target-x="310" target-y="765"></path></g><g node-id="188"><path d="M 636.00 142.00 L 723.00 142.00 L 723.00 191.00 L 636.00 191.00 Z" fill="#9dc3d8" fill-rule="evenodd" group-id="5" id="Rectangle-24" node-id="118" stroke-linecap="butt" stroke-width="1" target-height="49" target-width="87" target-x="636" target-y="142"></path><path d="M 625.00 190.00 L 734.00 190.00 L 734.00 232.00 L 625.00 232.00 Z" fill="#5b92b7" fill-rule="evenodd" group-id="5" id="Rectangle-24-Copy" node-id="119" stroke-linecap="butt" stroke-width="1" target-height="42" target-width="109" target-x="625" target-y="190"></path><path d="M 604.00 232.00 L 756.00 232.00 L 756.00 274.00 L 604.00 274.00 Z" fill="#7fb4d7" fill-rule="evenodd" group-id="5" id="Rectangle-24-Copy-2" node-id="120" stroke-linecap="butt" stroke-width="1" target-height="42" target-width="152" target-x="604" target-y="232"></path><path d="M 604.00 247.00 L 756.00 247.00 L 756.00 251.00 L 604.00 251.00 Z" fill="#4d95c9" fill-rule="evenodd" group-id="5" id="Rectangle-24-Copy-5" node-id="121" stroke-linecap="butt" stroke-width="1" target-height="4" target-width="152" target-x="604" target-y="247"></path><path d="M 604.00 258.00 L 756.00 258.00 L 756.00 262.00 L 604.00 262.00 Z" fill="#4d95c9" fill-rule="evenodd" group-id="5" id="Rectangle-24-Copy-6" node-id="122" stroke-linecap="butt" stroke-width="1" target-height="4" target-width="152" target-x="604" target-y="258"></path><path d="M 604.00 274.00 L 756.00 274.00 L 756.00 331.00 L 604.00 331.00 Z" fill="#6faacf" fill-rule="evenodd" group-id="5" id="Rectangle-24-Copy-3" node-id="123" stroke-linecap="butt" stroke-width="1" target-height="57" target-width="152" target-x="604" target-y="274"></path><path d="M 604.00 283.00 L 756.00 283.00 L 756.00 287.00 L 604.00 287.00 Z" fill="#4d95c9" fill-rule="evenodd" group-id="5" id="Rectangle-24-Copy-8" node-id="124" stroke-linecap="butt" stroke-width="1" target-height="4" target-width="152" target-x="604" target-y="283"></path><path d="M 604.00 294.00 L 756.00 294.00 L 756.00 298.00 L 604.00 298.00 Z" fill="#4d95c9" fill-rule="evenodd" group-id="5" id="Rectangle-24-Copy-7" node-id="125" stroke-linecap="butt" stroke-width="1" target-height="4" target-width="152" target-x="604" target-y="294"></path><path d="M 604.00 305.00 L 756.00 305.00 L 756.00 309.00 L 604.00 309.00 Z" fill="#4d95c9" fill-rule="evenodd" group-id="5" id="Rectangle-24-Copy-10" node-id="126" stroke-linecap="butt" stroke-width="1" target-height="4" target-width="152" target-x="604" target-y="305"></path><path d="M 604.00 316.00 L 756.00 316.00 L 756.00 320.00 L 604.00 320.00 Z" fill="#4d95c9" fill-rule="evenodd" group-id="5" id="Rectangle-24-Copy-9" node-id="127" stroke-linecap="butt" stroke-width="1" target-height="4" target-width="152" target-x="604" target-y="316"></path><path d="M 598.00 331.00 L 759.00 331.00 L 759.00 789.00 L 598.00 789.00 Z" fill="#659fc7" fill-rule="evenodd" group-id="5" id="Rectangle-24-Copy-4" node-id="128" stroke-linecap="butt" stroke-width="1" target-height="458" target-width="161" target-x="598" target-y="331"></path><path d="M 598.00 343.00 L 759.00 343.00 L 759.00 349.00 L 598.00 349.00 Z" fill="#4d95c9" fill-rule="evenodd" group-id="5" id="Rectangle-24-Copy-11" node-id="129" stroke-linecap="butt" stroke-width="1" target-height="6" target-width="161" target-x="598" target-y="343"></path><path d="M 598.00 358.63 L 759.00 358.63 L 759.00 364.63 L 598.00 364.63 Z" fill="#4d95c9" fill-rule="evenodd" group-id="5" id="Rectangle-24-Copy-12" node-id="130" stroke-linecap="butt" stroke-width="1" target-height="6" target-width="161" target-x="598" target-y="358.62964"></path><path d="M 598.00 374.26 L 759.00 374.26 L 759.00 380.26 L 598.00 380.26 Z" fill="#4d95c9" fill-rule="evenodd" group-id="5" id="Rectangle-24-Copy-13" node-id="131" stroke-linecap="butt" stroke-width="1" target-height="6" target-width="161" target-x="598" target-y="374.25928"></path><path d="M 598.00 389.89 L 759.00 389.89 L 759.00 395.89 L 598.00 395.89 Z" fill="#4d95c9" fill-rule="evenodd" group-id="5" id="Rectangle-24-Copy-14" node-id="132" stroke-linecap="butt" stroke-width="1" target-height="6" target-width="161" target-x="598" target-y="389.8889"></path><path d="M 598.00 405.52 L 759.00 405.52 L 759.00 411.52 L 598.00 411.52 Z" fill="#4d95c9" fill-rule="evenodd" group-id="5" id="Rectangle-24-Copy-15" node-id="133" stroke-linecap="butt" stroke-width="1" target-height="6" target-width="161" target-x="598" target-y="405.51852"></path><path d="M 598.00 421.15 L 759.00 421.15 L 759.00 427.15 L 598.00 427.15 Z" fill="#4d95c9" fill-rule="evenodd" group-id="5" id="Rectangle-24-Copy-16" node-id="134" stroke-linecap="butt" stroke-width="1" target-height="6" target-width="161" target-x="598" target-y="421.14816"></path><path d="M 598.00 436.78 L 759.00 436.78 L 759.00 442.78 L 598.00 442.78 Z" fill="#4d95c9" fill-rule="evenodd" group-id="5" id="Rectangle-24-Copy-17" node-id="135" stroke-linecap="butt" stroke-width="1" target-height="6" target-width="161" target-x="598" target-y="436.77777"></path><path d="M 598.00 452.41 L 759.00 452.41 L 759.00 458.41 L 598.00 458.41 Z" fill="#4d95c9" fill-rule="evenodd" group-id="5" id="Rectangle-24-Copy-18" node-id="136" stroke-linecap="butt" stroke-width="1" target-height="6" target-width="161" target-x="598" target-y="452.4074"></path><path d="M 598.00 468.04 L 759.00 468.04 L 759.00 474.04 L 598.00 474.04 Z" fill="#4d95c9" fill-rule="evenodd" group-id="5" id="Rectangle-24-Copy-19" node-id="137" stroke-linecap="butt" stroke-width="1" target-height="6" target-width="161" target-x="598" target-y="468.03705"></path><path d="M 598.00 483.67 L 759.00 483.67 L 759.00 489.67 L 598.00 489.67 Z" fill="#4d95c9" fill-rule="evenodd" group-id="5" id="Rectangle-24-Copy-20" node-id="138" stroke-linecap="butt" stroke-width="1" target-height="6" target-width="161" target-x="598" target-y="483.66666"></path><path d="M 598.00 499.30 L 759.00 499.30 L 759.00 505.30 L 598.00 505.30 Z" fill="#4d95c9" fill-rule="evenodd" group-id="5" id="Rectangle-24-Copy-21" node-id="139" stroke-linecap="butt" stroke-width="1" target-height="6" target-width="161" target-x="598" target-y="499.2963"></path><path d="M 598.00 514.93 L 759.00 514.93 L 759.00 520.93 L 598.00 520.93 Z" fill="#4d95c9" fill-rule="evenodd" group-id="5" id="Rectangle-24-Copy-22" node-id="140" stroke-linecap="butt" stroke-width="1" target-height="6" target-width="161" target-x="598" target-y="514.9259"></path><path d="M 598.00 530.56 L 759.00 530.56 L 759.00 536.56 L 598.00 536.56 Z" fill="#4d95c9" fill-rule="evenodd" group-id="5" id="Rectangle-24-Copy-23" node-id="141" stroke-linecap="butt" stroke-width="1" target-height="6" target-width="161" target-x="598" target-y="530.55554"></path><path d="M 598.00 546.19 L 759.00 546.19 L 759.00 552.19 L 598.00 552.19 Z" fill="#4d95c9" fill-rule="evenodd" group-id="5" id="Rectangle-24-Copy-34" node-id="142" stroke-linecap="butt" stroke-width="1" target-height="6" target-width="161" target-x="598" target-y="546.1852"></path><path d="M 598.00 561.81 L 759.00 561.81 L 759.00 567.81 L 598.00 567.81 Z" fill="#4d95c9" fill-rule="evenodd" group-id="5" id="Rectangle-24-Copy-33" node-id="143" stroke-linecap="butt" stroke-width="1" target-height="6" target-width="161" target-x="598" target-y="561.8148"></path><path d="M 598.00 577.44 L 759.00 577.44 L 759.00 583.44 L 598.00 583.44 Z" fill="#4d95c9" fill-rule="evenodd" group-id="5" id="Rectangle-24-Copy-32" node-id="144" stroke-linecap="butt" stroke-width="1" target-height="6" target-width="161" target-x="598" target-y="577.44446"></path><path d="M 598.00 593.07 L 759.00 593.07 L 759.00 599.07 L 598.00 599.07 Z" fill="#4d95c9" fill-rule="evenodd" group-id="5" id="Rectangle-24-Copy-31" node-id="145" stroke-linecap="butt" stroke-width="1" target-height="6" target-width="161" target-x="598" target-y="593.0741"></path><path d="M 598.00 608.70 L 759.00 608.70 L 759.00 614.70 L 598.00 614.70 Z" fill="#4d95c9" fill-rule="evenodd" group-id="5" id="Rectangle-24-Copy-30" node-id="146" stroke-linecap="butt" stroke-width="1" target-height="6" target-width="161" target-x="598" target-y="608.70374"></path><path d="M 598.00 624.33 L 759.00 624.33 L 759.00 630.33 L 598.00 630.33 Z" fill="#4d95c9" fill-rule="evenodd" group-id="5" id="Rectangle-24-Copy-29" node-id="147" stroke-linecap="butt" stroke-width="1" target-height="6" target-width="161" target-x="598" target-y="624.3334"></path><path d="M 598.00 639.96 L 759.00 639.96 L 759.00 645.96 L 598.00 645.96 Z" fill="#4d95c9" fill-rule="evenodd" group-id="5" id="Rectangle-24-Copy-28" node-id="148" stroke-linecap="butt" stroke-width="1" target-height="6" target-width="161" target-x="598" target-y="639.96295"></path><path d="M 598.00 655.59 L 759.00 655.59 L 759.00 661.59 L 598.00 661.59 Z" fill="#4d95c9" fill-rule="evenodd" group-id="5" id="Rectangle-24-Copy-27" node-id="149" stroke-linecap="butt" stroke-width="1" target-height="6" target-width="161" target-x="598" target-y="655.5926"></path><path d="M 598.00 671.22 L 759.00 671.22 L 759.00 677.22 L 598.00 677.22 Z" fill="#4d95c9" fill-rule="evenodd" group-id="5" id="Rectangle-24-Copy-26" node-id="150" stroke-linecap="butt" stroke-width="1" target-height="6" target-width="161" target-x="598" target-y="671.2222"></path><path d="M 598.00 686.85 L 759.00 686.85 L 759.00 692.85 L 598.00 692.85 Z" fill="#4d95c9" fill-rule="evenodd" group-id="5" id="Rectangle-24-Copy-25" node-id="151" stroke-linecap="butt" stroke-width="1" target-height="6" target-width="161" target-x="598" target-y="686.85187"></path><path d="M 598.00 702.48 L 759.00 702.48 L 759.00 708.48 L 598.00 708.48 Z" fill="#4d95c9" fill-rule="evenodd" group-id="5" id="Rectangle-24-Copy-24" node-id="152" stroke-linecap="butt" stroke-width="1" target-height="6" target-width="161" target-x="598" target-y="702.4815"></path><path d="M 598.00 718.11 L 759.00 718.11 L 759.00 724.11 L 598.00 724.11 Z" fill="#4d95c9" fill-rule="evenodd" group-id="5" id="Rectangle-24-Copy-38" node-id="153" stroke-linecap="butt" stroke-width="1" target-height="6" target-width="161" target-x="598" target-y="718.1111"></path><path d="M 598.00 733.74 L 759.00 733.74 L 759.00 739.74 L 598.00 739.74 Z" fill="#4d95c9" fill-rule="evenodd" group-id="5" id="Rectangle-24-Copy-37" node-id="154" stroke-linecap="butt" stroke-width="1" target-height="6" target-width="161" target-x="598" target-y="733.7407"></path><path d="M 598.00 749.37 L 759.00 749.37 L 759.00 755.37 L 598.00 755.37 Z" fill="#4d95c9" fill-rule="evenodd" group-id="5" id="Rectangle-24-Copy-36" node-id="155" stroke-linecap="butt" stroke-width="1" target-height="6" target-width="161" target-x="598" target-y="749.37036"></path><path d="M 598.00 765.00 L 759.00 765.00 L 759.00 771.00 L 598.00 771.00 Z" fill="#4d95c9" fill-rule="evenodd" group-id="5" id="Rectangle-24-Copy-35" node-id="156" stroke-linecap="butt" stroke-width="1" target-height="6" target-width="161" target-x="598" target-y="765"></path></g><path d="M 349.25 786.15 L 268.33 790.30 L 89.92 846.82 L 121.20 931.13 L 168.78 931.13 L 134.41 849.02 Z" fill="#5ea76c" fill-rule="evenodd" id="Path-48" node-id="157" stroke="none" target-height="144.974" target-width="259.33203" target-x="89.92057" target-y="786.1536"></path><path d="M 167.90 931.60 L 134.41 848.93 L 349.64 785.45 L 490.83 931.60 Z" fill="#3e884e" fill-rule="evenodd" id="Path-47" node-id="158" stroke="none" target-height="146.15234" target-width="356.41406" target-x="134.41406" target-y="785.45184"></path><path d="M 226.47 932.61 L 204.88 861.71 L 668.86 764.49 L 799.43 806.89 L 676.48 773.15 L 229.00 864.82 L 250.15 932.61 Z" fill="#499a58" fill-rule="evenodd" id="Path-49" node-id="159" stroke="none" target-height="168.1211" target-width="594.55597" target-x="204.87761" target-y="764.487"></path><path d="M 525.48 772.90 L 573.69 784.57 L 521.14 795.86 Z" fill="#3e884e" fill-rule="evenodd" id="Path-52" node-id="160" stroke="none" target-height="22.960938" target-width="52.54883" target-x="521.13965" target-y="772.8994"></path><path d="M 359.47 717.00 L 415.01 690.74 L 387.24 824.92 L 348.64 785.84 Z" fill="#3d9e52" fill-rule="evenodd" id="Path-50" node-id="161" stroke="none" target-height="134.18164" target-width="66.37207" target-x="348.6377" target-y="690.74023"></path><path d="M 414.68 691.36 L 525.07 716.95 L 534.54 792.56 L 387.08 824.90 Z" fill="#208f38" fill-rule="evenodd" id="Path-51" node-id="162" stroke="none" target-height="133.54102" target-width="147.46289" target-x="387.08105" target-y="691.3574"></path><path d="M 612.09 756.14 L 649.61 748.09 L 750.04 767.20 L 770.22 804.83 L 582.83 804.83 Z" fill="#1e712f" fill-rule="evenodd" id="Path-46" node-id="163" stroke="none" target-height="56.74872" target-width="187.39063" target-x="582.8294" target-y="748.08594"></path><path d="M 949.72 932.05 L 962.97 856.90 L 686.63 772.96 L 592.50 932.05 Z" fill="#1e712f" fill-rule="evenodd" id="Path-45" node-id="164" stroke="none" target-height="159.08948" target-width="370.4732" target-x="592.4994" target-y="772.9597"></path><path d="M 249.48 932.43 L 227.82 864.70 L 676.20 772.38 L 798.31 806.51 L 841.52 898.31 L 760.85 932.43 Z" fill="#5ea76c" fill-rule="evenodd" id="Path-43" node-id="165" stroke="none" target-height="160.04297" target-width="613.6914" target-x="227.82422" target-y="772.3828"></path><path d="M 385.01 931.24 L 356.66 859.07 L 590.87 810.95 L 718.48 918.28 L 718.48 931.24 Z" fill="#377d45" fill-rule="evenodd" id="Path-44" node-id="166" stroke="none" target-height="120.296875" target-width="361.8164" target-x="356.66406" target-y="810.9453"></path><path d="M 390.01 931.24 L 361.66 861.07 L 593.87 813.95 L 723.48 920.28 L 723.48 931.24 Z" fill="#459455" fill-rule="evenodd" id="Path-44-Copy" node-id="167" stroke="none" target-height="117.296875" target-width="361.8164" target-x="361.66406" target-y="813.9453"></path><path d="M 247.00 800.00 L 246.80 804.65 L 246.26 809.14 L 245.37 813.48 L 244.15 817.70 L 242.00 823.16 L 239.35 828.27 L 236.20 833.07 L 232.56 837.53 L 228.53 841.56 L 224.07 845.20 L 219.27 848.35 L 214.16 851.00 L 208.70 853.15 L 204.48 854.37 L 200.14 855.26 L 195.65 855.80 L 191.00 856.00 L 186.35 855.80 L 181.86 855.26 L 177.52 854.37 L 173.30 853.15 L 167.84 851.00 L 162.73 848.35 L 157.93 845.20 L 153.47 841.56 L 149.44 837.53 L 145.80 833.07 L 142.65 828.27 L 140.00 823.16 L 137.85 817.70 L 136.63 813.48 L 135.74 809.14 L 135.20 804.65 L 135.00 800.00 L 135.20 795.35 L 135.74 790.86 L 136.63 786.52 L 137.85 782.30 L 140.00 776.84 L 142.65 771.73 L 145.80 766.93 L 149.44 762.47 L 153.47 758.44 L 157.93 754.80 L 162.73 751.65 L 167.84 749.00 L 173.30 746.85 L 177.52 745.63 L 181.86 744.74 L 186.35 744.20 L 191.00 744.00 L 195.65 744.20 L 200.14 744.74 L 204.48 745.63 L 208.70 746.85 L 214.16 749.00 L 219.27 751.65 L 224.07 754.80 L 228.53 758.44 L 232.56 762.47 L 236.20 766.93 L 239.35 771.73 L 242.00 776.84 L 244.15 782.30 L 245.37 786.52 L 246.26 790.86 L 246.80 795.35 L 247.00 800.00 Z" fill="#336d2c" fill-rule="evenodd" group-id="6" id="Oval-2" node-id="169" stroke-linecap="butt" stroke-width="1" target-height="112" target-width="112" target-x="135" target-y="744"></path><path d="M 191.00 829.00 L 191.00 829.00 L 192.57 829.32 L 193.83 830.17 L 194.68 831.43 L 195.00 833.00 L 195.00 930.00 L 187.00 930.00 L 187.00 833.00 L 187.32 831.43 L 188.17 830.17 L 189.43 829.32 L 191.00 829.00 Z" fill="#6e5b21" fill-rule="evenodd" group-id="6" id="Rectangle-6-Copy" node-id="170" stroke-linecap="butt" stroke-width="1" target-height="101" target-width="8" target-x="187" target-y="829"></path><path d="M 237.00 768.50 L 236.77 773.94 L 236.13 779.19 L 235.09 784.27 L 233.66 789.20 L 231.83 794.03 L 229.68 798.62 L 227.19 803.00 L 224.36 807.18 L 221.22 811.14 L 217.82 814.82 L 214.14 818.22 L 210.18 821.36 L 206.00 824.19 L 201.62 826.68 L 197.03 828.83 L 192.20 830.66 L 187.27 832.09 L 182.19 833.13 L 176.94 833.77 L 171.50 834.00 L 166.06 833.77 L 160.81 833.13 L 155.73 832.09 L 150.80 830.66 L 145.97 828.83 L 141.38 826.68 L 137.00 824.19 L 132.82 821.36 L 128.86 818.22 L 125.18 814.82 L 121.78 811.14 L 118.64 807.18 L 115.81 803.00 L 113.32 798.62 L 111.17 794.03 L 109.34 789.20 L 107.91 784.27 L 106.87 779.19 L 106.23 773.94 L 106.00 768.50 L 106.23 763.06 L 106.87 757.81 L 107.91 752.73 L 109.34 747.80 L 111.17 742.97 L 113.32 738.38 L 115.81 734.00 L 118.64 729.82 L 121.78 725.86 L 125.18 722.18 L 128.86 718.78 L 132.82 715.64 L 137.00 712.81 L 141.38 710.32 L 145.97 708.17 L 150.80 706.34 L 155.73 704.91 L 160.81 703.87 L 166.06 703.23 L 171.50 703.00 L 176.94 703.23 L 182.19 703.87 L 187.27 704.91 L 192.20 706.34 L 197.03 708.17 L 201.62 710.32 L 206.00 712.81 L 210.18 715.64 L 214.14 718.78 L 217.82 722.18 L 221.22 725.86 L 224.36 729.82 L 227.19 734.00 L 229.68 738.38 L 231.83 742.97 L 233.66 747.80 L 235.09 752.73 L 236.13 757.81 L 236.77 763.06 L 237.00 768.50 Z" fill="url(#linearGradient-1)" fill-rule="evenodd" group-id="6" id="Combined-Shape" node-id="171" stroke-linecap="butt" stroke-width="1" target-height="131" target-width="131" target-x="106" target-y="703"></path><path d="M 173.00 756.00 L 173.00 756.00 L 174.57 756.32 L 175.83 757.17 L 176.68 758.43 L 177.00 760.00 L 177.00 930.00 L 169.00 930.00 L 169.00 760.00 L 169.32 758.43 L 170.17 757.17 L 171.43 756.32 L 173.00 756.00 Z" fill="#6e5b21" fill-rule="evenodd" group-id="6" id="Rectangle-6" node-id="172" stroke-linecap="butt" stroke-width="1" target-height="174" target-width="8" target-x="169" target-y="756"></path><path d="M 173.78 795.49 L 205.93 772.13 L 207.02 771.63 L 208.17 771.59 L 209.24 771.98 L 210.12 772.79 L 210.71 773.60 L 211.21 774.69 L 211.25 775.83 L 210.86 776.91 L 210.05 777.79 L 177.89 801.15 L 176.80 801.65 L 175.66 801.69 L 174.59 801.30 L 173.70 800.49 L 173.12 799.68 L 172.62 798.59 L 172.58 797.45 L 172.97 796.37 L 173.78 795.49 Z" fill="#6e5b21" fill-rule="evenodd" group-id="6" id="Rectangle-7" node-id="173" stroke-linecap="butt" stroke-width="1" target-height="30.095703" target-width="38.666977" target-x="172.5797" target-y="771.593"></path><path d="M 78.00 930.00 L 976.00 930.00 L 976.00 961.00 L 78.00 961.00 Z" fill="#63577e" fill-rule="evenodd" id="Rectangle" node-id="174" stroke="none" target-height="31" target-width="898" target-x="78" target-y="930"></path><path d="M 962.00 800.00 L 961.80 804.65 L 961.26 809.14 L 960.37 813.48 L 959.15 817.70 L 957.00 823.16 L 954.35 828.27 L 951.20 833.07 L 947.56 837.53 L 943.53 841.56 L 939.07 845.20 L 934.27 848.35 L 929.16 851.00 L 923.70 853.15 L 919.48 854.37 L 915.14 855.26 L 910.65 855.80 L 906.00 856.00 L 901.35 855.80 L 896.86 855.26 L 892.52 854.37 L 888.30 853.15 L 882.84 851.00 L 877.73 848.35 L 872.93 845.20 L 868.47 841.56 L 864.44 837.53 L 860.80 833.07 L 857.65 828.27 L 855.00 823.16 L 852.85 817.70 L 851.63 813.48 L 850.74 809.14 L 850.20 804.65 L 850.00 800.00 L 850.20 795.35 L 850.74 790.86 L 851.63 786.52 L 852.85 782.30 L 855.00 776.84 L 857.65 771.73 L 860.80 766.93 L 864.44 762.47 L 868.47 758.44 L 872.93 754.80 L 877.73 751.65 L 882.84 749.00 L 888.30 746.85 L 892.52 745.63 L 896.86 744.74 L 901.35 744.20 L 906.00 744.00 L 910.65 744.20 L 915.14 744.74 L 919.48 745.63 L 923.70 746.85 L 929.16 749.00 L 934.27 751.65 L 939.07 754.80 L 943.53 758.44 L 947.56 762.47 L 951.20 766.93 L 954.35 771.73 L 957.00 776.84 L 959.15 782.30 L 960.37 786.52 L 961.26 790.86 L 961.80 795.35 L 962.00 800.00 Z" fill="#57ad4d" fill-rule="evenodd" group-id="7" id="Oval-2" node-id="176" stroke-linecap="butt" stroke-width="1" target-height="112" target-width="112" target-x="850" target-y="744"></path><path d="M 906.00 829.00 L 906.00 829.00 L 907.57 829.32 L 908.83 830.17 L 909.68 831.43 L 910.00 833.00 L 910.00 930.00 L 902.00 930.00 L 902.00 833.00 L 902.32 831.43 L 903.17 830.17 L 904.43 829.32 L 906.00 829.00 Z" fill="#6e5b21" fill-rule="evenodd" group-id="7" id="Rectangle-6-Copy" node-id="177" stroke-linecap="butt" stroke-width="1" target-height="101" target-width="8" target-x="902" target-y="829"></path><path d="M 952.00 768.50 L 951.77 773.94 L 951.13 779.19 L 950.09 784.27 L 948.66 789.20 L 946.83 794.03 L 944.68 798.62 L 942.19 803.00 L 939.36 807.18 L 936.22 811.14 L 932.82 814.82 L 929.14 818.22 L 925.18 821.36 L 921.00 824.19 L 916.62 826.68 L 912.03 828.83 L 907.20 830.66 L 902.27 832.09 L 897.19 833.13 L 891.94 833.77 L 886.50 834.00 L 881.06 833.77 L 875.81 833.13 L 870.73 832.09 L 865.80 830.66 L 860.97 828.83 L 856.38 826.68 L 852.00 824.19 L 847.82 821.36 L 843.86 818.22 L 840.18 814.82 L 836.78 811.14 L 833.64 807.18 L 830.81 803.00 L 828.32 798.62 L 826.17 794.03 L 824.34 789.20 L 822.91 784.27 L 821.87 779.19 L 821.23 773.94 L 821.00 768.50 L 821.23 763.06 L 821.87 757.81 L 822.91 752.73 L 824.34 747.80 L 826.17 742.97 L 828.32 738.38 L 830.81 734.00 L 833.64 729.82 L 836.78 725.86 L 840.18 722.18 L 843.86 718.78 L 847.82 715.64 L 852.00 712.81 L 856.38 710.32 L 860.97 708.17 L 865.80 706.34 L 870.73 704.91 L 875.81 703.87 L 881.06 703.23 L 886.50 703.00 L 891.94 703.23 L 897.19 703.87 L 902.27 704.91 L 907.20 706.34 L 912.03 708.17 L 916.62 710.32 L 921.00 712.81 L 925.18 715.64 L 929.14 718.78 L 932.82 722.18 L 936.22 725.86 L 939.36 729.82 L 942.19 734.00 L 944.68 738.38 L 946.83 742.97 L 948.66 747.80 L 950.09 752.73 L 951.13 757.81 L 951.77 763.06 L 952.00 768.50 Z" fill="url(#linearGradient-1)" fill-rule="evenodd" group-id="7" id="Combined-Shape" node-id="178" stroke-linecap="butt" stroke-width="1" target-height="131" target-width="131" target-x="821" target-y="703"></path><path d="M 888.00 756.00 L 888.00 756.00 L 889.57 756.32 L 890.83 757.17 L 891.68 758.43 L 892.00 760.00 L 892.00 930.00 L 884.00 930.00 L 884.00 760.00 L 884.32 758.43 L 885.17 757.17 L 886.43 756.32 L 888.00 756.00 Z" fill="#6e5b21" fill-rule="evenodd" group-id="7" id="Rectangle-6" node-id="179" stroke-linecap="butt" stroke-width="1" target-height="174" target-width="8" target-x="884" target-y="756"></path><path d="M 888.78 795.49 L 920.93 772.13 L 922.02 771.63 L 923.17 771.59 L 924.24 771.98 L 925.12 772.79 L 925.71 773.60 L 926.21 774.69 L 926.25 775.83 L 925.86 776.91 L 925.05 777.79 L 892.89 801.15 L 891.80 801.65 L 890.66 801.69 L 889.59 801.30 L 888.70 800.49 L 888.12 799.68 L 887.62 798.59 L 887.58 797.45 L 887.97 796.37 L 888.78 795.49 Z" fill="#6e5b21" fill-rule="evenodd" group-id="7" id="Rectangle-7" node-id="180" stroke-linecap="butt" stroke-width="1" target-height="30.095703" target-width="38.666992" target-x="887.5797" target-y="771.593"></path></svg>